<?xml version="1.0" encoding="UTF-8" standalone="no"?>
<svg
   xmlns:dc="http://purl.org/dc/elements/1.1/"
   xmlns:cc="http://creativecommons.org/ns#"
   xmlns:rdf="http://www.w3.org/1999/02/22-rdf-syntax-ns#"
   xmlns:svg="http://www.w3.org/2000/svg"
   xmlns="http://www.w3.org/2000/svg"
   xmlns:sodipodi="http://sodipodi.sourceforge.net/DTD/sodipodi-0.dtd"
   xmlns:inkscape="http://www.inkscape.org/namespaces/inkscape"
   width="2.0410in"
   height="1.4792in"
   viewBox="0 0 999 724"
   version="1.1"
   id="svg3492"
   sodipodi:docname="Chiller 2.svg"
   inkscape:version="1.0.2-2 (e86c870879, 2021-01-15)">
  <metadata
     id="metadata3498">
    <rdf:RDF>
      <cc:Work
         rdf:about="">
        <dc:format>image/svg+xml</dc:format>
        <dc:type
           rdf:resource="http://purl.org/dc/dcmitype/StillImage" />
      </cc:Work>
    </rdf:RDF>
  </metadata>
  <defs
     id="defs3496" />
  <sodipodi:namedview
     pagecolor="#ffffff"
     bordercolor="#666666"
     borderopacity="1"
     objecttolerance="10"
     gridtolerance="10"
     guidetolerance="10"
     inkscape:pageopacity="0"
     inkscape:pageshadow="2"
     inkscape:window-width="1920"
     inkscape:window-height="1017"
     id="namedview3494"
     showgrid="false"
     inkscape:zoom="5.3180633"
     inkscape:cx="97.967995"
     inkscape:cy="71.0016"
     inkscape:window-x="-8"
     inkscape:window-y="-8"
     inkscape:window-maximized="1"
     inkscape:current-layer="svg3492" />
  <path
     style="fill:#3f3f3f"
     d="M499,204 l393,0 0,177 -393,0 0,-177z"
     id="path3382" />
  <path
     style="fill:#d7d7d7;stroke:#000;stroke-width:2"
     d="M519,106 l-177,0 0,216 118,0 0,-98 59,0 0,-118z"
     id="path3384" />
  <path
     style="fill:#f5f5f5"
     d="M519,126 l-157,0 0,177 78,0 0,-99 79,0 0,-78z"
     id="path3386" />
  <path
     style="fill:#f8f8f8"
     d="M519,146 l-138,0 0,137 39,0 0,-98 99,0 0,-39z"
     id="path3388" />
  <path
     style="fill:none;stroke:#000;stroke-width:2"
     d="M342,106 l118,118"
     id="path3390" />
  <path
     style="fill:#6d6d6d;stroke:#000;stroke-width:2"
     d="M67,283 l530,0 0,98 -530,0 0,-98z"
     id="path3392" />
  <path
     style="fill:#a2a2a2"
     d="M67,303 l530,0 0,78 -530,0 0,-78z"
     id="path3394" />
  <path
     style="fill:#d7d7d7"
     d="M67,327 l530,0 0,54 -530,0 0,-54z"
     id="path3396" />
  <path
     style="fill:#f1f1f1"
     d="M67,352 l530,0 0,29 -530,0 0,-29z"
     id="path3398" />
  <path
     style="fill:#a2a2a2;stroke:#000;stroke-width:2"
     d="M48,381 l215,0 0,-59 275,0 0,59 413,0 0,275 -903,0 0,-275z"
     id="path3400" />
  <path
     style="fill:#cbcbcb"
     d="M48,404 l235,0 0,-77 236,0 0,77 432,0 0,228 -903,0 0,-228z"
     id="path3402" />
  <path
     style="fill:#f0f0f0"
     d="M48,428 l903,0 0,181 -903,0 0,-181z"
     id="path3404" />
  <path
     style="fill:#f3f3f3"
     d="M48,451 l903,0 0,134 -903,0 0,-134z"
     id="path3406" />
  <path
     style="fill:#f5f5f5"
     d="M48,475 l903,0 0,87 -903,0 0,-87z"
     id="path3408" />
  <path
     style="fill:#f8f8f8"
     d="M48,499 l903,0 0,39 -903,0 0,-39z"
     id="path3410" />
  <path
     style="fill:#f1f1f1;stroke:#000;stroke-width:2"
     d="M28,479 l20,0 0,216 -20,0 0,-216z"
     id="path3412" />
  <path
     style="fill:#f8f8f8;stroke:#000;stroke-width:2"
     d="M28,361 l20,0 0,118 -20,0 0,-118z"
     id="path3414" />
  <path
     style="fill:#f1f1f1;stroke:#000;stroke-width:2"
     d="M950,479 l20,0 0,216 -20,0 0,-216z"
     id="path3416" />
  <path
     style="fill:#f8f8f8;stroke:#000;stroke-width:2"
     d="M950,361 l20,0 0,118 -20,0 0,-118z"
     id="path3418" />
  <path
     style="fill:#f5f5f5;stroke:#000;stroke-width:2"
     d="M303,185 l196,0 0,255 -196,0 0,-255z"
     id="HA_ANI"
     inkscape:label="HA_ANI" />
  <path
     style="fill:#f5f5f5;stroke:#000;stroke-width:2"
     d="M342,460 l118,0 0,137 -118,0 0,-137z"
     id="path3422" />
  <path
     style="fill:#d7d7d7"
     d="M519,244 l0,-157 137,-40 0,-19 79,0 39,19 0,236 -39,20 -79,0 0,-20 -137,-39z"
     id="path3424" />
  <path
     style="fill:#f5f5f5;stroke:#000;stroke-width:2"
     d="M794,224 l0,-196 137,0 0,196 -137,0z"
     id="path3426" />
  <path
     style="fill:#f1f1f1"
     d="M519,232 l0,-134 137,-34 0,-16 79,0 39,16 0,202 -39,17 -79,0 0,-17 -137,-34z"
     id="path3428" />
  <path
     style="fill:#f5f5f5"
     d="M519,221 l0,-112 137,-28 0,-14 79,0 39,14 0,168 -39,14 -79,0 0,-14 -137,-28z"
     id="path3430" />
  <path
     style="fill:#f8f8f8"
     d="M519,199 l0,-68 137,-17 0,-8 79,0 39,8 0,102 -39,8 -79,0 0,-8 -137,-17z"
     id="path3432" />
  <path
     style="fill:#fbfbfb"
     d="M519,176 l0,-22 137,-6 0,-3 79,0 39,3 0,34 -39,3 -79,0 0,-3 -137,-6z"
     id="path3434" />
  <path
     style="fill:none;stroke:#000;stroke-width:2"
     d="M519,244 l0,-157 137,-40 0,-19 79,0 39,19 0,236 -39,20 -79,0 0,-20 -137,-39"
     id="path3436" />
  <path
     style="fill:none;stroke:#000;stroke-width:2"
     d="M656,283 l0,-236"
     id="path3438" />
  <path
     style="fill:none;stroke:#000;stroke-width:2"
     d="M735,303 l0,-275"
     id="path3440" />
  <path
     style="fill:none;stroke:#000;stroke-width:2"
     d="M676,303 l0,-275"
     id="path3442" />
  <path
     style="fill:none;stroke:#000;stroke-width:2"
     d="M715,28 l0,275"
     id="path3444" />
  <path
     style="fill:#d7d7d7"
     d="M754,303 l118,0 0,78 -118,0 0,-78z"
     id="path3446" />
  <path
     style="fill:#f1f1f1"
     d="M754,308 l118,0 0,68 -118,0 0,-68z"
     id="path3448" />
  <path
     style="fill:#f5f5f5"
     d="M754,314 l118,0 0,56 -118,0 0,-56z"
     id="path3450" />
  <path
     style="fill:#f8f8f8"
     d="M754,325 l118,0 0,34 -118,0 0,-34z"
     id="path3452" />
  <path
     style="fill:#fbfbfb"
     d="M754,336 l118,0 0,12 -118,0 0,-12z"
     id="path3454" />
  <path
     style="fill:none;stroke:#000;stroke-width:2"
     d="M754,303 l118,0 0,78 -118,0 0,-78"
     id="path3456" />
  <path
     style="fill:#a2a2a2;stroke:#000;stroke-width:2"
     d="M754,322 l-117,0 0,-78 -10,0 0,88 127,0 0,-10z"
     id="path3458" />
  <path
     style="fill:#f1f1f1;stroke:#000;stroke-width:2"
     d="M661,342 l93,0 0,24 -93,0 0,-24z"
     id="path3460" />
  <path
     style="fill:#f1f1f1;stroke:#000;stroke-width:2"
     d="M656,381 l0,-78 -19,0 0,9 9,0 0,69 10,0z"
     id="path3462" />
  <path
     style="fill:#f1f1f1;stroke:#000;stroke-width:2"
     d="M627,303 l-59,0 0,9 59,0 0,-9z"
     id="path3464" />
  <path
     style="fill:#8e8e8e"
     d="M366,249 l69,0 0,93 -69,0 0,-93z"
     id="path3466" />
  <path
     style="fill:#fbfbfb"
     d="M372,254 l58,0 0,83 -58,0 0,-83z"
     id="path3468" />
  <path
     style="fill:#8e8e8e"
     d="M332,401 l138,0 0,29 -138,0 0,-29z"
     id="path3470" />
  <path
     style="fill:#5f5f5f"
     d="M342,411 l59,0 0,9 -59,0 0,-9z"
     id="path3472" />
  <path
     style="fill:#f5f5f5;stroke:#000;stroke-width:2"
     d="M48,263 l19,0 0,118 -19,0 0,-118z"
     id="path3474" />
  <path
     style="fill:none;stroke:#fff;stroke-width:2"
     d="M489,195 l-177,0 0,235"
     id="path3476" />
  <path
     style="fill:none;stroke:#fff;stroke-width:2"
     d="M450,469 l-98,0 0,118"
     id="path3478" />
  <path
     style="fill:#000"
     d="M431,558 l9,0 0,9 -9,0 0,-9z"
     id="path3480" />
  <path
     style="fill:#000"
     d="M362,489 l9,0 0,10 -9,0 0,-10z"
     id="path3482" />
  <path
     style="fill:#000"
     d="M431,489 l9,0 0,10 -9,0 0,-10z"
     id="path3484" />
  <path
     style="fill:#6d6d6d"
     d="M342,597 l118,0 0,5 -118,0 0,-5z"
     id="path3486" />
  <path
     style="fill:#6d6d6d"
     d="M302,440 l197,0 0,10 -197,0 0,-10z"
     id="path3488" />
  <path
     style="fill:none;stroke:#fff;stroke-width:2"
     d="M803,214 l0,-176 118,0"
     id="path3490" />
</svg>
