<?xml version="1.0" encoding="UTF-8" standalone="no"?>
<svg
   xmlns:dc="http://purl.org/dc/elements/1.1/"
   xmlns:cc="http://creativecommons.org/ns#"
   xmlns:rdf="http://www.w3.org/1999/02/22-rdf-syntax-ns#"
   xmlns:svg="http://www.w3.org/2000/svg"
   xmlns="http://www.w3.org/2000/svg"
   xmlns:sodipodi="http://sodipodi.sourceforge.net/DTD/sodipodi-0.dtd"
   xmlns:inkscape="http://www.inkscape.org/namespaces/inkscape"
   width="1.1457in"
   height="1.4792in"
   viewBox="0 0 773 998"
   version="1.1"
   id="svg6196"
   sodipodi:docname="CT_1.svg"
   inkscape:version="1.0.2-2 (e86c870879, 2021-01-15)">
  <metadata
     id="metadata6202">
    <rdf:RDF>
      <cc:Work
         rdf:about="">
        <dc:format>image/svg+xml</dc:format>
        <dc:type
           rdf:resource="http://purl.org/dc/dcmitype/StillImage" />
      </cc:Work>
    </rdf:RDF>
  </metadata>
  <defs
     id="defs6200" />
  <sodipodi:namedview
     pagecolor="#ffffff"
     bordercolor="#666666"
     borderopacity="1"
     objecttolerance="10"
     gridtolerance="10"
     guidetolerance="10"
     inkscape:pageopacity="0"
     inkscape:pageshadow="2"
     inkscape:window-width="1920"
     inkscape:window-height="1017"
     id="namedview6198"
     showgrid="false"
     inkscape:zoom="5.9857806"
     inkscape:cx="54.993599"
     inkscape:cy="71.0016"
     inkscape:window-x="-8"
     inkscape:window-y="-8"
     inkscape:window-maximized="1"
     inkscape:current-layer="svg6196" />
  <path
     style="fill:#a6a6a6;stroke:#000;stroke-width:2"
     d="M713,906 l0,-763 -161,-69 0,36 -19,0 0,-50 19,-9 179,78 0,777 -18,0z"
     id="path6104" />
  <path
     style="fill:#d9d9d9;stroke:#000;stroke-width:2"
     d="M726,920 l0,-782 -202,-87 0,36 -18,0 0,-50 18,-9 221,96 0,796 -19,0z"
     id="path6106" />
  <path
     style="fill:#4c4c4c"
     d="M253,805 l211,0 0,73 -211,0 0,-73z"
     id="path6108" />
  <path
     style="fill:#a6a6a6"
     d="M46,694 l33,239 99,19 16,-147 329,0 17,147 98,-19 33,-239 -625,0z"
     id="path6110" />
  <path
     style="fill:#b2b2b2"
     d="M128,694 l33,253 17,5 16,-147 329,0 17,147 16,-5 33,-253 -461,0z"
     id="path6112" />
  <path
     style="fill:#bfbfbf"
     d="M211,694 l16,111 50,0 16,165 132,0 16,-165 49,0 17,-111 -296,0z"
     id="path6114" />
  <path
     style="fill:#ccc"
     d="M293,694 l33,276 66,0 33,-276 -132,0z"
     id="path6116" />
  <path
     style="fill:none;stroke:#000;stroke-width:2"
     d="M46,694 l33,239 99,19 16,-147 83,0 16,165 132,0 16,-165 82,0 17,147 98,-19 33,-239 -625,0"
     id="path6118" />
  <path
     style="fill:#7f7f7f;stroke:#000;stroke-width:2"
     d="M540,952 l-33,-19 -17,-128 33,-37 17,184z"
     id="path6120" />
  <path
     style="fill:#7f7f7f;stroke:#000;stroke-width:2"
     d="M178,952 l33,-19 16,-128 -33,-37 -16,184z"
     id="path6122" />
  <path
     style="fill:#999;stroke:#000;stroke-width:2"
     d="M441,805 l18,-37 65,0 -32,37 -51,0z"
     id="path6166" />
  <path
     style="fill:#999;stroke:#000;stroke-width:2"
     d="M276,805 l-51,0 -32,-37 66,0 17,37z"
     id="path6168" />
  <g
     id="HA_ANI"
     inkscape:label="HA_ANI">
    <path
       style="fill:#b2b2b2"
       d="M690,694 l0,-441 -111,-37 0,-110 -21,-16 -29,-7 -30,-5 -35,-4 -30,-2 -31,-2 -22,0 -11,-1 -11,0 -34,1 -32,1 -30,2 -28,2 -32,5 -27,5 -24,8 -14,13 0,110 -110,37 0,441 0,2 23,13 28,6 28,4 33,4 38,3 29,2 30,1 33,1 34,1 18,0 18,0 19,0 37,0 35,-1 33,-1 32,-1 29,-1 40,-3 35,-4 30,-4 30,-6 26,-10 3,-4 1,-2z"
       id="path6124" />
    <path
       style="fill:#bfbfbf"
       d="M635,694 l0,-441 -92,-37 0,-110 -1,-4 -22,-14 -31,-8 -27,-5 -32,-3 -34,-2 -18,-1 -19,0 -19,0 -35,2 -33,2 -30,4 -35,8 -24,10 -7,7 -1,4 0,110 -92,37 0,441 24,16 26,6 34,5 30,4 35,2 39,2 28,1 29,1 15,0 16,0 31,0 29,-1 28,-1 39,-2 34,-2 31,-4 26,-4 28,-5 25,-11 5,-5 0,-2z"
       id="path6126" />
    <path
       style="fill:#ccc"
       d="M580,694 l0,-441 -74,-37 0,-110 -25,-21 -28,-8 -37,-5 -28,-2 -14,-1 -15,0 -15,0 -29,2 -38,4 -31,7 -27,13 -7,11 0,110 -74,37 0,441 1,4 23,14 29,7 30,4 27,3 30,2 33,2 23,1 12,0 13,0 37,0 34,-2 30,-2 28,-2 32,-5 25,-5 26,-10 8,-7 0,-2 1,-2z"
       id="path6128" />
    <path
       style="fill:#d9d9d9"
       d="M525,694 l0,-441 -56,-37 0,-110 -19,-21 -29,-10 -29,-4 -22,-2 -11,0 -11,0 -32,3 -27,5 -27,11 -13,18 0,110 -56,37 0,441 26,21 31,7 26,4 30,3 34,2 19,0 19,0 34,-2 30,-3 26,-4 31,-7 23,-14 2,-3 1,-4z"
       id="path6130" />
    <path
       style="fill:#e5e5e5"
       d="M469,694 l0,-441 -36,-37 0,-110 -17,-24 -28,-10 -21,-3 -8,0 -8,0 -27,4 -26,12 -13,21 0,110 -36,37 0,441 17,21 28,10 30,4 23,2 12,0 12,0 34,-3 27,-6 25,-10 12,-14 0,-4z"
       id="path6132" />
    <path
       style="fill:#f2f2f2"
       d="M414,694 l0,-441 -19,-37 0,-110 -10,-26 -19,-10 -7,-1 -8,1 -23,15 -6,21 0,110 -19,37 0,441 12,24 26,11 12,2 6,0 6,0 26,-6 21,-20 2,-7 0,-4z"
       id="path6134" />
    <path
       style="fill:none;stroke:#000;stroke-width:2"
       d="M28,253 l662,0"
       id="path6136" />
    <path
       style="fill:none;stroke:#000;stroke-width:2"
       d="M138,216 l441,0"
       id="path6138" />
    <path
       style="fill:none;stroke:#000;stroke-width:2"
       d="M690,694 l0,-441 -111,-37 0,-110 -21,-16 -29,-7 -30,-5 -35,-4 -30,-2 -31,-2 -22,0 -11,-1 -11,0 -34,1 -32,1 -30,2 -28,2 -32,5 -27,5 -24,8 -14,13 0,110 -110,37 0,441 0,2 23,13 28,6 28,4 33,4 38,3 29,2 30,1 33,1 34,1 18,0 18,0 19,0 37,0 35,-1 33,-1 32,-1 29,-1 40,-3 35,-4 30,-4 30,-6 26,-10 3,-4 1,-2"
       id="path6140" />
    <path
       style="fill:#4c4c4c"
       d="M230,575 l258,0 0,119 -258,0 0,-119z"
       id="path6142" />
    <path
       style="fill:#ccc;stroke:#7f7f7f;stroke-width:2"
       d="M230,667 l258,0 0,27 -258,0 0,-27z"
       id="path6144" />
    <path
       style="fill:#ccc;stroke:#7f7f7f;stroke-width:2"
       d="M230,621 l258,0 0,27 -258,0 0,-27z"
       id="path6146" />
    <path
       style="fill:#ccc;stroke:#7f7f7f;stroke-width:2"
       d="M230,575 l258,0 0,27 -258,0 0,-27z"
       id="path6148" />
    <path
       style="fill:#333"
       d="M506,575 l179,-10 0,111 -179,18 0,-119z"
       id="path6150" />
    <path
       style="fill:#333"
       d="M33,565 l179,10 0,119 -179,-18 0,-111z"
       id="path6152" />
    <path
       style="fill:#b2b2b2;stroke:#7f7f7f;stroke-width:2"
       d="M506,667 l179,-13 0,22 -179,18 0,-27z"
       id="path6154" />
    <path
       style="fill:#b2b2b2;stroke:#7f7f7f;stroke-width:2"
       d="M506,621 l179,-13 0,28 -179,12 0,-27z"
       id="path6156" />
    <path
       style="fill:#b2b2b2;stroke:#7f7f7f;stroke-width:2"
       d="M506,575 l179,-10 0,25 -179,12 0,-27z"
       id="path6158" />
    <path
       style="fill:#b2b2b2;stroke:#7f7f7f;stroke-width:2"
       d="M32,654 l180,13 0,27 -180,-18 0,-22z"
       id="path6160" />
    <path
       style="fill:#b2b2b2;stroke:#7f7f7f;stroke-width:2"
       d="M32,608 l180,13 0,27 -180,-12 0,-28z"
       id="path6162" />
    <path
       style="fill:#b2b2b2;stroke:#7f7f7f;stroke-width:2"
       d="M32,565 l180,10 0,27 -180,-12 0,-25z"
       id="path6164" />
    <path
       style="fill:#8c8c8c"
       d="M74,253 l0,-9 83,-28 4,0 -87,37z"
       id="path6178" />
    <path
       style="fill:#8c8c8c"
       d="M643,253 l0,-9 -83,-28 -4,0 87,37z"
       id="path6180" />
    <path
       style="fill:#a6a6a6"
       d="M230,253 l0,-9 32,-28 5,0 -37,37z"
       id="path6182" />
    <path
       style="fill:#a6a6a6"
       d="M487,253 l0,-9 -32,-28 -5,0 37,37z"
       id="path6184" />
    <path
       style="fill:none;stroke:#000;stroke-width:2"
       d="M469,212 l-9,0"
       id="path6186" />
    <path
       style="fill:none;stroke:#000;stroke-width:2"
       d="M248,212 l9,0"
       id="path6188" />
    <path
       style="fill:none;stroke:#000;stroke-width:2"
       d="M143,212 l9,0"
       id="path6190" />
    <path
       style="fill:none;stroke:#000;stroke-width:2"
       d="M574,212 l-9,0"
       id="path6192" />
  </g>
  <g
     inkscape:groupmode="layer"
     id="layer3"
     inkscape:label="Layer 1">
    <path
       style="fill:#d9d9d9;stroke:#7f7f7f;stroke-width:2"
       d="M643,933 l0,-680 -87,-37 0,-129 18,0 0,125 88,27 0,694 -19,0z"
       id="path6174" />
    <path
       style="fill:#f2f2f2;stroke:#7f7f7f;stroke-width:2"
       d="M487,952 l0,-699 -37,-37 0,-142 19,0 0,138 37,27 0,713 -19,0z"
       id="path6172" />
    <path
       style="fill:#f2f2f2;stroke:#7f7f7f;stroke-width:2"
       d="M230,952 l0,-699 37,-37 0,-142 -19,0 0,138 -36,27 0,713 18,0z"
       id="path6170" />
    <path
       style="fill:#d9d9d9;stroke:#7f7f7f;stroke-width:2"
       d="M74,933 l0,-680 87,-37 0,-129 -18,0 0,125 -88,27 0,694 19,0z"
       id="path6176" />
  </g>
</svg>
