<?xml version="1.0" encoding="UTF-8" standalone="no"?>
<svg
   xmlns:dc="http://purl.org/dc/elements/1.1/"
   xmlns:cc="http://creativecommons.org/ns#"
   xmlns:rdf="http://www.w3.org/1999/02/22-rdf-syntax-ns#"
   xmlns:svg="http://www.w3.org/2000/svg"
   xmlns="http://www.w3.org/2000/svg"
   xmlns:sodipodi="http://sodipodi.sourceforge.net/DTD/sodipodi-0.dtd"
   xmlns:inkscape="http://www.inkscape.org/namespaces/inkscape"
   width="1.6773in"
   height="1.4792in"
   viewBox="0 0 999 881"
   version="1.1"
   id="svg5510"
   sodipodi:docname="Evaporator.svg"
   inkscape:version="1.0.2-2 (e86c870879, 2021-01-15)">
  <metadata
     id="metadata5516">
    <rdf:RDF>
      <cc:Work
         rdf:about="">
        <dc:format>image/svg+xml</dc:format>
        <dc:type
           rdf:resource="http://purl.org/dc/dcmitype/StillImage" />
      </cc:Work>
    </rdf:RDF>
  </metadata>
  <defs
     id="defs5514" />
  <sodipodi:namedview
     pagecolor="#ffffff"
     bordercolor="#666666"
     borderopacity="1"
     objecttolerance="10"
     gridtolerance="10"
     guidetolerance="10"
     inkscape:pageopacity="0"
     inkscape:pageshadow="2"
     inkscape:window-width="1920"
     inkscape:window-height="1017"
     id="namedview5512"
     showgrid="false"
     inkscape:zoom="5.9857806"
     inkscape:cx="80.510399"
     inkscape:cy="71.0016"
     inkscape:window-x="-8"
     inkscape:window-y="-8"
     inkscape:window-maximized="1"
     inkscape:current-layer="svg5510" />
  <path
     style="fill:#000"
     d="M813,141 l0,-30 -628,0 0,187 599,0 0,122 -599,0 0,197 599,0 0,127 -599,0 0,30 628,0 0,-187 -599,0 0,-137 599,0 0,-182 -599,0 0,-127 599,0z"
     id="path5506" />
  <path
     style="fill:#f4f4f4;stroke:#000;stroke-width:2"
     d="M872,852 l37,-6 33,-22 21,-33 7,-37 -7,-37 -21,-33 -33,-21 -37,-7 -746,0 -22,-4 -20,-13 -13,-20 -4,-22 4,-22 13,-20 20,-13 22,-3 746,0 37,-8 33,-21 21,-33 7,-37 -7,-37 -21,-33 -33,-21 -37,-7 -746,0 -22,-4 -20,-13 -13,-20 -4,-22 4,-22 13,-20 20,-13 22,-4 746,0 37,-7 33,-21 21,-33 7,-37 -7,-37 -21,-33 -33,-21 -37,-7 -844,0 0,39 844,0 22,4 20,12 13,20 4,23 -4,22 -13,20 -42,17 -746,0 -37,7 -33,21 -21,33 -7,37 7,37 21,33 33,21 37,8 746,0 23,3 19,13 13,20 4,22 -4,22 -13,20 -19,13 -23,4 -746,0 -37,7 -33,21 -21,33 -7,37 7,37 21,33 33,21 37,7 746,0 23,4 19,13 13,20 4,22 -4,22 -13,21 -19,12 -23,4 -844,0 0,39 844,0z"
     id="HA_ANI"
     inkscape:label="HA_ANI" />
</svg>
