<?xml version="1.0" encoding="iso-8859-1"?>
<!DOCTYPE svg PUBLIC "-//W3C//DTD SVG 20000303 Stylable//EN"
"http://www.w3.org/TR/2000/03/WD-SVG-20000303/DTD/svg-20000303-stylable.dtd">

<svg width="1.1297in" height="1.4792in" viewBox="0 0 763 999">

<path style="fill:#9f9f9f;stroke:#000;stroke-width:2" d="M67,970 l0,-707 196,-235 0,707 -196,235z" />
<path style="fill:#9f9f9f;stroke:#000;stroke-width:2" d="M185,970 l0,-707 196,-235 0,707 -196,235z" />
<path style="fill:#9f9f9f;stroke:#000;stroke-width:2" d="M303,970 l0,-707 196,-235 0,707 -196,235z" />
<path style="fill:#9f9f9f;stroke:#000;stroke-width:2" d="M420,970 l0,-707 197,-235 0,707 -197,235z" />
<path style="fill:#9f9f9f;stroke:#000;stroke-width:2" d="M538,970 l0,-707 197,-235 0,707 -197,235z" />
<path style="fill:#fcfcfc;stroke:#000;stroke-width:2" d="M28,263 l39,0 196,-235 -39,0 -196,235z" />
<path style="fill:#fcfcfc;stroke:#000;stroke-width:2" d="M146,263 l39,0 196,-235 -39,0 -196,235z" />
<path style="fill:#fcfcfc;stroke:#000;stroke-width:2" d="M263,263 l40,0 196,-235 -39,0 -197,235z" />
<path style="fill:#fcfcfc;stroke:#000;stroke-width:2" d="M381,263 l39,0 197,-235 -39,0 -197,235z" />
<path style="fill:#fcfcfc;stroke:#000;stroke-width:2" d="M499,263 l39,0 197,-235 -40,0 -196,235z" />
<path style="fill:#777;stroke:#000;stroke-width:2" d="M28,263 l39,0 0,707 -39,0 0,-707z" />
<path style="fill:#777;stroke:#000;stroke-width:2" d="M146,263 l39,0 0,707 -39,0 0,-707z" />
<path style="fill:#777;stroke:#000;stroke-width:2" d="M263,263 l40,0 0,707 -40,0 0,-707z" />
<path style="fill:#777;stroke:#000;stroke-width:2" d="M381,263 l39,0 0,707 -39,0 0,-707z" />
<path style="fill:#777;stroke:#000;stroke-width:2" d="M499,263 l39,0 0,707 -39,0 0,-707z" />

</svg>
