<?xml version="1.0" encoding="UTF-8" standalone="no"?>
<svg
   xmlns:dc="http://purl.org/dc/elements/1.1/"
   xmlns:cc="http://creativecommons.org/ns#"
   xmlns:rdf="http://www.w3.org/1999/02/22-rdf-syntax-ns#"
   xmlns:svg="http://www.w3.org/2000/svg"
   xmlns="http://www.w3.org/2000/svg"
   xmlns:sodipodi="http://sodipodi.sourceforge.net/DTD/sodipodi-0.dtd"
   xmlns:inkscape="http://www.inkscape.org/namespaces/inkscape"
   width="1.6079in"
   height="1.4792in"
   viewBox="0 0 999 919"
   version="1.1"
   id="svg8378"
   sodipodi:docname="DAMPER_CLOSE.svg"
   inkscape:version="1.0.2-2 (e86c870879, 2021-01-15)">
  <metadata
     id="metadata8384">
    <rdf:RDF>
      <cc:Work
         rdf:about="">
        <dc:format>image/svg+xml</dc:format>
        <dc:type
           rdf:resource="http://purl.org/dc/dcmitype/StillImage" />
      </cc:Work>
    </rdf:RDF>
  </metadata>
  <defs
     id="defs8382" />
  <sodipodi:namedview
     pagecolor="#ffffff"
     bordercolor="#666666"
     borderopacity="1"
     objecttolerance="10"
     gridtolerance="10"
     guidetolerance="10"
     inkscape:pageopacity="0"
     inkscape:pageshadow="2"
     inkscape:window-width="1920"
     inkscape:window-height="1017"
     id="namedview8380"
     showgrid="false"
     inkscape:zoom="5.9857806"
     inkscape:cx="77.179201"
     inkscape:cy="71.0016"
     inkscape:window-x="-8"
     inkscape:window-y="-8"
     inkscape:window-maximized="1"
     inkscape:current-layer="svg8378" />
  <path
     style="fill:#ccccb2"
     d="M67,126 l413,0 0,745 38,0 0,-745 413,0 0,-61 -864,0 0,61z"
     id="path8292" />
  <path
     style="fill:#e5e5cb"
     d="M518,126 l413,0 0,750 -413,0 0,-750z"
     id="path8294" />
  <path
     style="fill:#e5e5cb"
     d="M67,126 l413,0 0,750 -413,0 0,-750z"
     id="path8296" />
  <path
     style="fill:#d9d9bf"
     d="M518,126 l413,0 0,62 -413,94 0,-156z"
     id="path8298" />
  <path
     style="fill:#d9d9bf"
     d="M518,375 l413,0 0,64 -413,92 0,-156z"
     id="path8300" />
  <path
     style="fill:#d9d9bf"
     d="M518,625 l413,0 0,65 -413,92 0,-157z"
     id="path8302" />
  <path
     style="fill:#d9d9bf"
     d="M67,126 l413,0 0,62 -413,94 0,-156z"
     id="path8304" />
  <path
     style="fill:#d9d9bf"
     d="M67,375 l413,0 0,64 -413,92 0,-156z"
     id="path8306" />
  <path
     style="fill:#d9d9bf"
     d="M67,625 l413,0 0,65 -413,92 0,-157z"
     id="path8308" />
  <path
     style="fill:#f2f2d8"
     d="M931,710 l0,166 -413,0 0,-68 413,-98z"
     id="path8310" />
  <path
     style="fill:#f2f2d8"
     d="M931,459 l0,166 -413,0 0,-67 413,-99z"
     id="path8312" />
  <path
     style="fill:#f2f2d8"
     d="M931,209 l0,166 -413,0 0,-68 413,-98z"
     id="path8314" />
  <path
     style="fill:#f2f2d8"
     d="M480,710 l0,166 -413,0 0,-68 413,-98z"
     id="path8316" />
  <path
     style="fill:#f2f2d8"
     d="M480,459 l0,166 -413,0 0,-67 413,-99z"
     id="path8318" />
  <path
     style="fill:#f2f2d8"
     d="M480,209 l0,166 -413,0 0,-68 413,-98z"
     id="path8320" />
  <path
     style="fill:none;stroke:#000;stroke-width:2"
     d="M518,625 l413,0 0,251 -413,0 0,-251"
     id="path8322" />
  <path
     style="fill:none;stroke:#000;stroke-width:2"
     d="M518,126 l413,0 0,249 -413,0 0,-249"
     id="path8324" />
  <path
     style="fill:none;stroke:#000;stroke-width:2"
     d="M518,375 l413,0 0,250 -413,0 0,-250"
     id="path8326" />
  <path
     style="fill:none;stroke:#000;stroke-width:2"
     d="M67,625 l413,0 0,251 -413,0 0,-251"
     id="path8328" />
  <path
     style="fill:none;stroke:#000;stroke-width:2"
     d="M67,126 l413,0 0,249 -413,0 0,-249"
     id="path8330" />
  <path
     style="fill:none;stroke:#000;stroke-width:2"
     d="M67,375 l413,0 0,250 -413,0 0,-250"
     id="path8332" />
  <path
     style="fill:#e5e5cb"
     d="M67,65 l0,806 864,0 0,-806 -864,0 -40,-38 944,0 0,864 -944,0 0,-864 40,38z"
     id="path8334" />
  <path
     style="fill:none;stroke:#000;stroke-width:2"
     d="M27,27 l944,0 0,864 -944,0 0,-864"
     id="path8336" />
  <path
     style="fill:none;stroke:#000;stroke-width:2"
     d="M67,126 l413,0 0,745 38,0 0,-745 413,0 0,-61 -864,0 0,61"
     id="path8338" />
  <path
     style="fill:none;stroke:#000;stroke-width:2"
     d="M67,65 l864,0 0,807 -864,0 0,-807"
     id="path8340" />
  <path
     style="fill:#b2b298"
     d="M67,105 l864,0 0,21 -864,0 0,-21z"
     id="path8342" />
  <path
     style="fill:#ffffe5"
     d="M58,65 l9,0 0,806 -9,0 0,-806z"
     id="path8344" />
  <path
     style="fill:#ffffe5"
     d="M931,65 l9,0 0,806 -9,0 0,-806z"
     id="path8346" />
  <path
     style="fill:#ffffe5"
     d="M940,56 l0,9 -882,0 0,-9 882,0z"
     id="path8348" />
  <path
     style="fill:#ffffe5"
     d="M493,65 l12,0 0,806 -12,0 0,-806z"
     id="path8350" />
  <path
     style="fill:none;stroke:#b2b265;stroke-width:2"
     d="M58,871 l0,-815 882,0 0,815"
     id="path8352" />
  <path
     style="fill:#000"
     d="M46,150 l12,0 0,34 -12,0 0,-34z"
     id="path8356" />
  <path
     style="fill:#000"
     d="M940,150 l12,0 0,34 -12,0 0,-34z"
     id="path8358" />
  <path
     style="fill:#000"
     d="M46,399 l12,0 0,36 -12,0 0,-36z"
     id="path8364" />
  <path
     style="fill:#000"
     d="M940,399 l12,0 0,36 -12,0 0,-36z"
     id="path8366" />
  <path
     style="fill:#000"
     d="M46,650 l12,0 0,34 -12,0 0,-34z"
     id="path8372" />
  <path
     style="fill:#000"
     d="M940,650 l12,0 0,34 -12,0 0,-34z"
     id="path8374" />
  <g
     id="HA_ANI"
     inkscape:label="HA_ANI">
    <path
       style="fill:#000"
       d="M67,150 l426,0 0,34 -426,0 0,-34z"
       id="path8354" />
    <path
       style="fill:#000"
       d="M505,150 l426,0 0,34 -426,0 0,-34z"
       id="path8360" />
    <path
       style="fill:#000"
       d="M67,399 l426,0 0,36 -426,0 0,-36z"
       id="path8362" />
    <path
       style="fill:#000"
       d="M505,399 l426,0 0,36 -426,0 0,-36z"
       id="path8368" />
    <path
       style="fill:#000"
       d="M67,650 l426,0 0,34 -426,0 0,-34z"
       id="path8370" />
    <path
       style="fill:#000"
       d="M505,650 l426,0 0,34 -426,0 0,-34z"
       id="path8376" />
  </g>
</svg>
