<?xml version="1.0" encoding="UTF-8" standalone="no"?>
<svg
   xmlns:dc="http://purl.org/dc/elements/1.1/"
   xmlns:cc="http://creativecommons.org/ns#"
   xmlns:rdf="http://www.w3.org/1999/02/22-rdf-syntax-ns#"
   xmlns:svg="http://www.w3.org/2000/svg"
   xmlns="http://www.w3.org/2000/svg"
   xmlns:sodipodi="http://sodipodi.sourceforge.net/DTD/sodipodi-0.dtd"
   xmlns:inkscape="http://www.inkscape.org/namespaces/inkscape"
   width="1.6079in"
   height="1.4792in"
   viewBox="0 0 999 919"
   version="1.1"
   id="svg9064"
   sodipodi:docname="DAMPER_OPEN.svg"
   inkscape:version="1.0.2-2 (e86c870879, 2021-01-15)">
  <metadata
     id="metadata9070">
    <rdf:RDF>
      <cc:Work
         rdf:about="">
        <dc:format>image/svg+xml</dc:format>
        <dc:type
           rdf:resource="http://purl.org/dc/dcmitype/StillImage" />
      </cc:Work>
    </rdf:RDF>
  </metadata>
  <defs
     id="defs9068" />
  <sodipodi:namedview
     pagecolor="#ffffff"
     bordercolor="#666666"
     borderopacity="1"
     objecttolerance="10"
     gridtolerance="10"
     guidetolerance="10"
     inkscape:pageopacity="0"
     inkscape:pageshadow="2"
     inkscape:window-width="1920"
     inkscape:window-height="1017"
     id="namedview9066"
     showgrid="false"
     inkscape:zoom="5.9857806"
     inkscape:cx="77.179201"
     inkscape:cy="71.0016"
     inkscape:window-x="-8"
     inkscape:window-y="-8"
     inkscape:window-maximized="1"
     inkscape:current-layer="svg9064" />
  <path
     style="fill:#e5e5cb"
     d="M67,65 l0,807 864,0 0,-807 -864,0 -40,-38 944,0 0,864 -944,0 0,-864 40,38z"
     id="path9018" />
  <path
     style="fill:none;stroke:#000;stroke-width:2"
     d="M27,27 l944,0 0,864 -944,0 0,-864"
     id="path9020" />
  <path
     style="fill:none;stroke:#000;stroke-width:2"
     d="M67,126 l413,0 0,746 38,0 0,-746 413,0 0,-61 -864,0 0,61"
     id="path9022" />
  <path
     style="fill:none;stroke:#000;stroke-width:2"
     d="M67,65 l864,0 0,807 -864,0 0,-807"
     id="path9024" />
  <path
     style="fill:#ccccb2"
     d="M67,126 l413,0 0,746 38,0 0,-746 413,0 0,-61 -864,0 0,61z"
     id="path9026" />
  <path
     style="fill:#b2b298"
     d="M67,105 l864,0 0,21 -864,0 0,-21z"
     id="path9028" />
  <path
     style="fill:#ffffe5"
     d="M58,65 l9,0 0,807 -9,0 0,-807z"
     id="path9030" />
  <path
     style="fill:#ffffe5"
     d="M931,65 l9,0 0,807 -9,0 0,-807z"
     id="path9032" />
  <path
     style="fill:#ffffe5"
     d="M940,56 l0,9 -882,0 0,-9 882,0z"
     id="path9034" />
  <path
     style="fill:#ffffe5"
     d="M493,65 l12,0 0,807 -12,0 0,-807z"
     id="path9036" />
  <path
     style="fill:none;stroke:#b2b265;stroke-width:2"
     d="M58,872 l0,-816 882,0 0,816"
     id="path9038" />
  <path
     style="fill:#000"
     d="M46,150 l12,0 0,34 -12,0 0,-34z"
     id="path9042" />
  <path
     style="fill:#000"
     d="M940,150 l12,0 0,34 -12,0 0,-34z"
     id="path9044" />
  <path
     style="fill:#000"
     d="M46,401 l12,0 0,34 -12,0 0,-34z"
     id="path9050" />
  <path
     style="fill:#000"
     d="M940,401 l12,0 0,34 -12,0 0,-34z"
     id="path9052" />
  <path
     style="fill:#000"
     d="M46,652 l12,0 0,34 -12,0 0,-34z"
     id="path9058" />
  <path
     style="fill:#000"
     d="M940,652 l12,0 0,34 -12,0 0,-34z"
     id="path9060" />
  <g
     id="HA_ANI"
     inkscape:label="HA_ANI">
    <path
       style="fill:#000"
       d="M67,150 l426,0 0,34 -426,0 0,-34z"
       id="path9040" />
    <path
       style="fill:#000"
       d="M505,150 l426,0 0,34 -426,0 0,-34z"
       id="path9046" />
    <path
       style="fill:#000"
       d="M67,401 l426,0 0,34 -426,0 0,-34z"
       id="path9048" />
    <path
       style="fill:#000"
       d="M505,401 l426,0 0,34 -426,0 0,-34z"
       id="path9054" />
    <path
       style="fill:#000"
       d="M67,652 l426,0 0,34 -426,0 0,-34z"
       id="path9056" />
    <path
       style="fill:#000"
       d="M505,652 l426,0 0,34 -426,0 0,-34z"
       id="path9062" />
  </g>
</svg>
