<?xml version="1.0" encoding="UTF-8" standalone="no"?>
<svg
   xmlns:dc="http://purl.org/dc/elements/1.1/"
   xmlns:cc="http://creativecommons.org/ns#"
   xmlns:rdf="http://www.w3.org/1999/02/22-rdf-syntax-ns#"
   xmlns:svg="http://www.w3.org/2000/svg"
   xmlns="http://www.w3.org/2000/svg"
   xmlns:sodipodi="http://sodipodi.sourceforge.net/DTD/sodipodi-0.dtd"
   xmlns:inkscape="http://www.inkscape.org/namespaces/inkscape"
   width="1.4792in"
   height="1.4792in"
   viewBox="0 0 999 999"
   version="1.1"
   id="svg862"
   sodipodi:docname="Simple fan 2.svg"
   inkscape:version="1.0.2-2 (e86c870879, 2021-01-15)">
  <metadata
     id="metadata868">
    <rdf:RDF>
      <cc:Work
         rdf:about="">
        <dc:format>image/svg+xml</dc:format>
        <dc:type
           rdf:resource="http://purl.org/dc/dcmitype/StillImage" />
      </cc:Work>
    </rdf:RDF>
  </metadata>
  <defs
     id="defs866" />
  <sodipodi:namedview
     pagecolor="#ffffff"
     bordercolor="#666666"
     borderopacity="1"
     objecttolerance="10"
     gridtolerance="10"
     guidetolerance="10"
     inkscape:pageopacity="0"
     inkscape:pageshadow="2"
     inkscape:window-width="1920"
     inkscape:window-height="1017"
     id="namedview864"
     showgrid="false"
     inkscape:zoom="4.1689201"
     inkscape:cx="71.0016"
     inkscape:cy="71.0016"
     inkscape:window-x="-8"
     inkscape:window-y="-8"
     inkscape:window-maximized="1"
     inkscape:current-layer="svg862" />
  <path
     style="fill:none;stroke:#000;stroke-width:2"
     d="M657,735 l-26,18 -28,16 -28,13 -30,11 -31,9 -30,6 -32,4 -16,1 -8,0 -8,0 -31,-1 -31,-4 -31,-7 -30,-9 -30,-11 -28,-13 -27,-16 -20,-13 -6,-4"
     id="path858" />
  <g
     id="HA_ANI"
     inkscape:label="HA_ANI">
    <path
       style="fill:#0ff;stroke:#000;stroke-width:2"
       d="M656,735 l27,-22 24,-24 23,-26 19,-27 17,-30 15,-30 12,-32 9,-33 7,-33 4,-35 0,-23 157,0 0,-392 -550,0 -39,2 -39,6 -38,9 -36,14 -34,16 -33,20 -30,23 -28,25 -25,28 -23,30 -20,33 -16,34 -14,36 -9,38 -6,39 -2,19 0,20 0,12 3,34 5,34 9,33 11,33 14,31 17,30 18,28 22,26 24,25 25,22 9,7 -118,235 707,0 -118,-235z"
       id="path856" />
    <circle
       style="fill:#0ff;stroke:#000;stroke-width:2"
       cx="420"
       cy="420"
       r="196"
       id="circle860" />
  </g>
</svg>
