<?xml version="1.0" encoding="UTF-8" standalone="no"?>
<svg
   xmlns:dc="http://purl.org/dc/elements/1.1/"
   xmlns:cc="http://creativecommons.org/ns#"
   xmlns:rdf="http://www.w3.org/1999/02/22-rdf-syntax-ns#"
   xmlns:svg="http://www.w3.org/2000/svg"
   xmlns="http://www.w3.org/2000/svg"
   xmlns:sodipodi="http://sodipodi.sourceforge.net/DTD/sodipodi-0.dtd"
   xmlns:inkscape="http://www.inkscape.org/namespaces/inkscape"
   width="1.2245in"
   height="1.4792in"
   viewBox="0 0 827 999"
   version="1.1"
   id="svg2802"
   sodipodi:docname="Radial fume exhauster_sd.svg"
   inkscape:version="1.0.2-2 (e86c870879, 2021-01-15)">
  <metadata
     id="metadata2808">
    <rdf:RDF>
      <cc:Work
         rdf:about="">
        <dc:format>image/svg+xml</dc:format>
        <dc:type
           rdf:resource="http://purl.org/dc/dcmitype/StillImage" />
      </cc:Work>
    </rdf:RDF>
  </metadata>
  <defs
     id="defs2806" />
  <sodipodi:namedview
     pagecolor="#ffffff"
     bordercolor="#666666"
     borderopacity="1"
     objecttolerance="10"
     gridtolerance="10"
     guidetolerance="10"
     inkscape:pageopacity="0"
     inkscape:pageshadow="2"
     inkscape:window-width="1920"
     inkscape:window-height="1017"
     id="namedview2804"
     showgrid="false"
     inkscape:zoom="5.9857806"
     inkscape:cx="58.775997"
     inkscape:cy="71.0016"
     inkscape:window-x="-8"
     inkscape:window-y="-8"
     inkscape:window-maximized="1"
     inkscape:current-layer="svg2802" />
  <path
     style="fill:#f0f0f0;stroke:#000;stroke-width:2"
     d="M637,499 l-472,0 0,471 472,0 0,-471z"
     id="path2750" />
  <path
     style="fill:#f0f0f0;stroke:#000;stroke-width:2"
     d="M618,518 l-432,0 0,413 432,0 0,-413z"
     id="path2752" />
  <path
     style="fill:#f0f0f0;stroke:#000;stroke-width:2"
     d="M671,414 l96,0 0,-322 -225,0 -192,0 -33,1 -32,5 -30,8 -30,11 -28,14 -27,16 -25,19 -22,20 -21,23 -19,25 -16,27 -14,28 -11,30 -8,30 -5,33 -1,16 0,16 0,17 4,32 6,31 10,30 12,28 15,28 17,25 20,24 22,22 24,20 25,17 28,15 29,12 30,10 31,6 32,3 17,1 8,0 33,-3 31,-6 31,-8 29,-12 27,-14 26,-17 24,-19 23,-21 20,-24 18,-25 15,-27 13,-28 10,-30 8,-31 4,-32 1,-24z"
     id="path2754" />
  <path
     style="fill:#f0f0f0"
     d="M671,414 l96,0 0,-194 -191,-32 11,11 11,12 9,12 9,12 9,13 8,14 7,14 6,14 6,15 5,15 4,16 3,15 3,16 2,15 1,16 1,16z"
     id="path2756" />
  <path
     style="fill:#f0f0f0"
     d="M799,478 l0,-450 -32,0 0,450 32,0z"
     id="path2758" />
  <path
     style="fill:#f0f0f0"
     d="M799,478 l0,-145 -32,0 0,145 32,0z"
     id="path2760" />
  <path
     style="fill:#f0f0f0"
     d="M799,124 l0,-96 -32,0 0,96 32,0z"
     id="path2762" />
  <path
     style="fill:none;stroke:#000;stroke-width:2"
     d="M799,478 l0,-450 -32,0 0,450 32,0"
     id="path2764" />
  <path
     style="fill:#f0f0f0;stroke:#000;stroke-width:2"
     d="M657,931 l-510,0 0,39 510,0 0,-39z"
     id="path2766" />
  <circle
     style="fill:#f0f0f0;stroke:#000;stroke-width:2"
     cx="349"
     cy="413"
     r="257"
     id="HA_ANI"
     inkscape:label="HA_ANI" />
  <circle
     style="fill:#f0f0f0"
     cx="349"
     cy="413"
     r="189"
     id="circle2770" />
  <circle
     style="fill:#f0f0f0"
     cx="348"
     cy="413"
     r="169"
     id="circle2772" />
  <circle
     style="fill:#f0f0f0"
     cx="346"
     cy="412"
     r="149"
     id="circle2774" />
  <circle
     style="fill:#f0f0f0"
     cx="346"
     cy="413"
     r="130"
     id="circle2776" />
  <circle
     style="fill:#f0f0f0"
     cx="344"
     cy="413"
     r="110"
     id="circle2778" />
  <circle
     style="fill:#f0f0f0;stroke:#000;stroke-width:2"
     cx="350"
     cy="413"
     r="96"
     id="circle2780" />
  <path
     style="fill:#f0f0f0"
     d="M326,399 l-49,-26 6,-10 7,-8 9,-8 9,-6 9,-5 11,-3 11,-3 11,-1 0,57 -10,2 -9,6 -5,5z"
     id="path2782" />
  <path
     style="fill:#f0f0f0"
     d="M363,388 l29,-47 8,6 9,7 6,9 6,9 5,10 4,10 2,11 1,11 -55,0 -2,-12 -6,-9 -7,-5z"
     id="path2784" />
  <path
     style="fill:#f0f0f0"
     d="M375,427 l47,27 -7,9 -7,9 -8,7 -9,6 -10,5 -10,4 -10,2 -11,1 0,-55 10,-3 10,-6 5,-6z"
     id="path2786" />
  <path
     style="fill:#f0f0f0"
     d="M335,439 l-26,47 -10,-6 -8,-8 -8,-8 -6,-9 -5,-10 -3,-11 -2,-10 0,-6 0,-6 55,0 2,12 6,10 5,5z"
     id="path2788" />
  <path
     style="fill:#f0f0f0"
     d="M358,646 l0,-15 -17,0 0,15 17,0z"
     id="path2790" />
  <path
     style="fill:#f0f0f0"
     d="M141,414 l-17,0 0,15 17,0 0,-15z"
     id="path2792" />
  <path
     style="fill:#f0f0f0"
     d="M358,212 l0,-16 -17,0 0,16 17,0z"
     id="path2794" />
  <path
     style="fill:#f0f0f0"
     d="M576,414 l-17,0 0,15 17,0 0,-15z"
     id="path2796" />
  <path
     style="fill:#f0f0f0"
     d="M260,814 l7,-4 2,-8 -2,-5 -7,-4 -8,4 -2,5 2,8 8,4z"
     id="path2798" />
  <path
     style="fill:#f0f0f0"
     d="M260,891 l7,-2 2,-7 -2,-8 -7,-2 -8,2 -2,8 2,7 8,2z"
     id="path2800" />
</svg>
