<?xml version="1.0" encoding="UTF-8" standalone="no"?>
<svg
   xmlns:dc="http://purl.org/dc/elements/1.1/"
   xmlns:cc="http://creativecommons.org/ns#"
   xmlns:rdf="http://www.w3.org/1999/02/22-rdf-syntax-ns#"
   xmlns:svg="http://www.w3.org/2000/svg"
   xmlns="http://www.w3.org/2000/svg"
   xmlns:sodipodi="http://sodipodi.sourceforge.net/DTD/sodipodi-0.dtd"
   xmlns:inkscape="http://www.inkscape.org/namespaces/inkscape"
   width="1.2719in"
   height="1.4792in"
   viewBox="0 0 859 999"
   version="1.1"
   id="svg1923"
   sodipodi:docname="Blower_5.svg"
   inkscape:version="1.0.2-2 (e86c870879, 2021-01-15)">
  <metadata
     id="metadata1929">
    <rdf:RDF>
      <cc:Work
         rdf:about="">
        <dc:format>image/svg+xml</dc:format>
        <dc:type
           rdf:resource="http://purl.org/dc/dcmitype/StillImage" />
      </cc:Work>
    </rdf:RDF>
  </metadata>
  <defs
     id="defs1927" />
  <sodipodi:namedview
     pagecolor="#ffffff"
     bordercolor="#666666"
     borderopacity="1"
     objecttolerance="10"
     gridtolerance="10"
     guidetolerance="10"
     inkscape:pageopacity="0"
     inkscape:pageshadow="2"
     inkscape:window-width="1920"
     inkscape:window-height="1017"
     id="namedview1925"
     showgrid="false"
     inkscape:zoom="5.9857806"
     inkscape:cx="61.051203"
     inkscape:cy="71.0016"
     inkscape:window-x="-8"
     inkscape:window-y="-8"
     inkscape:window-maximized="1"
     inkscape:current-layer="svg1923" />
  <path
     style="fill:#b2b2b2"
     d="M637,222 l0,-194 194,0 0,748 -194,0 0,-196 -587,0 0,-358 587,0z"
     id="path1823" />
  <path
     style="fill:#c2c2c2"
     d="M636,252 l0,-164 195,0 0,626 -195,0 0,-163 -585,0 0,-299 585,0z"
     id="path1825" />
  <path
     style="fill:#d1d1d1"
     d="M636,281 l0,-132 195,0 0,504 -195,0 0,-131 -585,0 0,-241 585,0z"
     id="path1827" />
  <path
     style="fill:#e3e3e3"
     d="M636,310 l0,-100 195,0 0,382 -195,0 0,-100 -585,0 0,-182 585,0z"
     id="path1829" />
  <path
     style="fill:#f2f2f2"
     d="M637,339 l0,-68 194,0 0,260 -194,0 0,-68 -587,0 0,-124 587,0z"
     id="path1831" />
  <path
     style="fill:none;stroke:#000;stroke-width:2"
     d="M637,222 l0,-194 194,0 0,748 -194,0 0,-196 -587,0 0,-358 587,0"
     id="path1833" />
  <path
     style="fill:none;stroke:#000;stroke-width:2"
     d="M637,222 l0,358"
     id="path1835" />
  <path
     style="fill:#a6a6a6;stroke:#000;stroke-width:2"
     d="M701,45 l-64,0 0,714 64,0 0,-714z"
     id="path1837" />
  <path
     style="fill:none;stroke:#000;stroke-width:2"
     d="M718,710 l-98,0"
     id="path1839" />
  <path
     style="fill:none;stroke:#000;stroke-width:2"
     d="M718,94 l-98,0"
     id="path1841" />
  <path
     style="fill:none;stroke:#000;stroke-width:2"
     d="M718,680 l-98,0"
     id="path1843" />
  <path
     style="fill:none;stroke:#000;stroke-width:2"
     d="M718,124 l-98,0"
     id="path1845" />
  <path
     style="fill:none;stroke:#000;stroke-width:2"
     d="M718,644 l-98,0"
     id="path1847" />
  <path
     style="fill:none;stroke:#000;stroke-width:2"
     d="M718,158 l-98,0"
     id="path1849" />
  <path
     style="fill:none;stroke:#000;stroke-width:2"
     d="M718,597 l-98,0"
     id="path1851" />
  <path
     style="fill:none;stroke:#000;stroke-width:2"
     d="M718,207 l-98,0"
     id="path1853" />
  <path
     style="fill:none;stroke:#000;stroke-width:2"
     d="M718,548 l-98,0"
     id="path1855" />
  <path
     style="fill:none;stroke:#000;stroke-width:2"
     d="M718,256 l-98,0"
     id="path1857" />
  <path
     style="fill:none;stroke:#000;stroke-width:2"
     d="M718,499 l-98,0"
     id="path1859" />
  <path
     style="fill:none;stroke:#000;stroke-width:2"
     d="M718,305 l-98,0"
     id="path1861" />
  <path
     style="fill:none;stroke:#000;stroke-width:2"
     d="M718,450 l-98,0"
     id="path1863" />
  <path
     style="fill:none;stroke:#000;stroke-width:2"
     d="M718,352 l-98,0"
     id="path1865" />
  <path
     style="fill:none;stroke:#000;stroke-width:2"
     d="M718,401 l-98,0"
     id="path1867" />
  <path
     style="fill:none;stroke:#000;stroke-width:2"
     d="M718,742 l-98,0"
     id="path1869" />
  <path
     style="fill:none;stroke:#000;stroke-width:2"
     d="M718,62 l-98,0"
     id="path1871" />
  <path
     style="fill:none;stroke:#000;stroke-width:2"
     d="M718,759 l-98,0"
     id="path1873" />
  <path
     style="fill:none;stroke:#000;stroke-width:2"
     d="M718,45 l-98,0"
     id="path1875" />
  <path
     style="fill:none;stroke:#000;stroke-width:2"
     d="M620,45 l0,714"
     id="path1877" />
  <path
     style="fill:#d9d9d9;stroke:#000;stroke-width:2"
     d="M324,175 l0,-17 11,-11 17,0 9,11 0,17 -9,9 6,13 17,-17 0,-28 -17,-19 -29,0 -18,19 0,28 15,17 9,-13 -11,-9z"
     id="path1879" />
  <path
     style="fill:#d9d9d9;stroke:#000;stroke-width:2"
     d="M360,182 l-34,0 0,42 34,0 0,-42z"
     id="path1881" />
  <path
     style="fill:#7f7f7f;stroke:#000;stroke-width:2"
     d="M539,678 l-32,-115 -325,0 -34,115 391,0z"
     id="path1883" />
  <path
     style="fill:#b2b2b2;stroke:#000;stroke-width:2"
     d="M571,710 l0,-32 -455,0 0,32 455,0z"
     id="path1885" />
  <path
     style="fill:#000"
     d="M539,224 l1,0 0,356 -3,0 0,-356 2,0z"
     id="path1887" />
  <path
     style="fill:#000"
     d="M148,224 l2,0 0,356 -3,0 0,-356 1,0z"
     id="path1889" />
  <path
     style="fill:#999;stroke:#000;stroke-width:2"
     d="M637,710 l-587,0 0,260 587,0 0,-260z"
     id="path1891" />
  <path
     style="fill:#8c8c8c;stroke:#000;stroke-width:2"
     d="M588,710 l-489,0 0,228 489,0 0,-228z"
     id="path1893" />
  <g
     id="HA_ANI"
     inkscape:label="HA_ANI">
    <path
       style="fill:#d9d9d9;stroke:#000;stroke-width:2"
       d="M554,435 l-423,0 0,15 423,0 0,-15z"
       id="path1895" />
    <path
       style="fill:#d9d9d9;stroke:#000;stroke-width:2"
       d="M554,386 l-423,0 0,15 423,0 0,-15z"
       id="path1897" />
    <path
       style="fill:#d9d9d9;stroke:#000;stroke-width:2"
       d="M554,337 l-423,0 0,15 423,0 0,-15z"
       id="path1899" />
    <path
       style="fill:#bfbfbf;stroke:#000;stroke-width:2"
       d="M554,484 l-423,0 0,15 423,0 0,-15z"
       id="path1901" />
    <path
       style="fill:#bfbfbf;stroke:#000;stroke-width:2"
       d="M554,516 l-423,0 0,15 423,0 0,-15z"
       id="path1903" />
    <path
       style="fill:#bfbfbf;stroke:#000;stroke-width:2"
       d="M554,256 l-423,0 0,15 423,0 0,-15z"
       id="path1905" />
    <path
       style="fill:#bfbfbf;stroke:#000;stroke-width:2"
       d="M554,288 l-423,0 0,15 423,0 0,-15z"
       id="path1907" />
    <path
       style="fill:#a6a6a6;stroke:#000;stroke-width:2"
       d="M554,540 l-423,0 0,16 423,0 0,-16z"
       id="path1909" />
    <path
       style="fill:#a6a6a6;stroke:#000;stroke-width:2"
       d="M554,231 l-423,0 0,15 423,0 0,-15z"
       id="path1911" />
    <path
       style="fill:#a6a6a6;stroke:#000;stroke-width:2"
       d="M554,207 l-423,0 0,15 423,0 0,-15z"
       id="path1913" />
  </g>
  <path
     style="fill:#999;stroke:#000;stroke-width:2"
     d="M50,801 l-22,0 0,81 22,0 0,-81z"
     id="path1915" />
  <path
     style="fill:#737373;stroke:#000;stroke-width:2"
     d="M50,882 l-22,0 0,39 22,0 0,-39z"
     id="path1917" />
  <path
     style="fill:#d9d9d9;stroke:#000;stroke-width:2"
     d="M50,759 l-22,0 0,42 22,0 0,-42z"
     id="path1919" />
  <path
     style="fill:#b2b2b2;stroke:#000;stroke-width:2"
     d="M458,678 l-33,-130 -163,0 -33,130 229,0z"
     id="path1921" />
</svg>
