<?xml version="1.0" encoding="UTF-8" standalone="no"?>
<svg
   xmlns:dc="http://purl.org/dc/elements/1.1/"
   xmlns:cc="http://creativecommons.org/ns#"
   xmlns:rdf="http://www.w3.org/1999/02/22-rdf-syntax-ns#"
   xmlns:svg="http://www.w3.org/2000/svg"
   xmlns="http://www.w3.org/2000/svg"
   xmlns:sodipodi="http://sodipodi.sourceforge.net/DTD/sodipodi-0.dtd"
   xmlns:inkscape="http://www.inkscape.org/namespaces/inkscape"
   width="1.4792in"
   height="1.4792in"
   viewBox="0 0 999 999"
   version="1.1"
   id="svg1327"
   sodipodi:docname="Blower_1.svg"
   inkscape:version="1.0.2-2 (e86c870879, 2021-01-15)">
  <metadata
     id="metadata1333">
    <rdf:RDF>
      <cc:Work
         rdf:about="">
        <dc:format>image/svg+xml</dc:format>
        <dc:type
           rdf:resource="http://purl.org/dc/dcmitype/StillImage" />
      </cc:Work>
    </rdf:RDF>
  </metadata>
  <defs
     id="defs1331" />
  <sodipodi:namedview
     pagecolor="#ffffff"
     bordercolor="#666666"
     borderopacity="1"
     objecttolerance="10"
     gridtolerance="10"
     guidetolerance="10"
     inkscape:pageopacity="0"
     inkscape:pageshadow="2"
     inkscape:window-width="1920"
     inkscape:window-height="1017"
     id="namedview1329"
     showgrid="false"
     inkscape:zoom="2.116293"
     inkscape:cx="147.53917"
     inkscape:cy="118.19854"
     inkscape:window-x="-8"
     inkscape:window-y="-8"
     inkscape:window-maximized="1"
     inkscape:current-layer="svg1327"
     inkscape:document-rotation="0" />
  <path
     style="fill:#f0f0f0"
     d="M28,28 l942,0 0,942 -942,0 0,-942z"
     id="path1259" />
  <path
     style="fill:#f0f0f0"
     d="M28,697 l942,-394 0,667 -942,0 0,-273z"
     id="path1261" />
  <path
     style="fill:#f0f0f0"
     d="M28,737 l942,-394 0,627 -942,0 0,-233z"
     id="path1263" />
  <path
     style="fill:#f0f0f0"
     d="M28,795 l942,-394 0,569 -942,0 0,-175z"
     id="path1265" />
  <path
     style="fill:none;stroke:#000;stroke-width:2"
     d="M28,28 l942,0 0,942 -942,0 0,-942"
     id="path1267" />
  <path
     style="fill:#f0f0f0;stroke:#000;stroke-width:2"
     d="M665,901 l-109,30 -114,0 -109,-30 -98,-57 -81,-79 -58,-100 -29,-109 0,-114 30,-111 57,-98 79,-79 100,-58 109,-29 114,0 111,29 98,58 79,79 58,98 29,111 0,114 -29,109 -58,100 -79,79 -100,57z"
     id="path1269" />
  <path
     style="fill:#f0f0f0"
     d="M658,884 l-104,28 -110,0 -104,-28 -94,-55 -77,-77 -55,-94 -28,-104 2,-110 26,-105 55,-93 77,-77 94,-55 104,-28 110,0 104,28 94,55 77,77 55,94 28,104 0,110 -28,104 -55,94 -77,77 -94,55z"
     id="path1271" />
  <g
     id="HA_ANI"
     inkscape:label="HA_ANI"
     transform="translate(23)">
    <path
       style="fill:#f0f0f0"
       d="M 565,891 V 565 H 433 v 326 z"
       id="path1273" />
    <path
       style="fill:#f0f0f0"
       d="m 565,891 -17,-28 -13,-30 -10,-31 -6,-31 -3,-32 v -32 l 4,-32 8,-31 11,-31 15,-29 5,-10 6,-9 h -8 -124 l -17,29 -12,29 -10,31 -6,32 -2,21 -1,10 v 11 l 2,32 5,32 8,31 12,30 15,29 6,9 h 8 z"
       id="path1275" />
    <path
       style="fill:none;stroke:#000000;stroke-width:2"
       d="M 565,891 V 565 H 433 l -17,29 -12,29 -10,31 -6,32 -3,31 1,32 4,32 7,32 11,30 14,29 11,19 h 132"
       id="path1277" />
    <path
       style="fill:#f0f0f0"
       d="M 872,639 587,474 524,587 806,752 Z"
       id="path1279" />
    <path
       style="fill:#f0f0f0"
       d="m 872,639 h -33 l -33,-4 -31,-7 -31,-10 -29,-14 -28,-17 -26,-19 -23,-22 -21,-25 -19,-27 -5,-10 -6,-10 -3,7 -16,29 -16,28 -17,28 -8,14 -3,7 4,10 17,29 21,25 22,24 25,20 27,18 29,14 30,12 32,8 32,4 10,1 h 12 10 11 l 17,-29 16,-28 17,-28 12,-21 z"
       id="path1281" />
    <path
       style="fill:none;stroke:#000000;stroke-width:2"
       d="m 872,639 -285,-165 -63,113 16,30 19,26 21,24 24,22 27,18 28,16 30,12 31,10 32,5 33,2 h 21 l 66,-113"
       id="path1283" />
    <path
       style="fill:#f0f0f0"
       d="M 806,246 524,411 587,524 872,359 Z"
       id="path1285" />
    <path
       style="fill:#f0f0f0"
       d="m 806,246 -16,29 -20,26 -21,24 -24,22 -27,18 -28,16 -29,13 -31,9 -32,6 -33,2 h -10 -11 l 3,7 16,28 16,28 16,28 12,22 h 12 11 l 33,-2 32,-6 31,-9 30,-13 28,-16 26,-18 25,-22 21,-24 20,-26 11,-19 5,-10 -4,-7 -16,-28 -17,-28 -16,-29 -9,-14 z"
       id="path1287" />
    <path
       style="fill:none;stroke:#000000;stroke-width:2"
       d="m 806,246 -282,165 63,113 h 12 l 33,-1 32,-5 32,-8 30,-12 29,-14 27,-18 25,-20 22,-23 21,-26 17,-28 5,-10 -66,-113"
       id="path1289" />
    <path
       style="fill:#f0f0f0"
       d="M 433,107 V 433 H 565 V 107 Z"
       id="path1291" />
    <path
       style="fill:#f0f0f0"
       d="m 433,107 17,28 13,30 10,31 6,31 3,32 -1,32 -4,32 -7,31 -11,31 -15,29 -5,10 -6,9 h 8 124 l 17,-29 12,-29 10,-31 6,-32 2,-21 1,-10 v -11 l -2,-32 -5,-32 -8,-31 -12,-30 -15,-29 -6,-9 h -8 z"
       id="path1293" />
    <path
       style="fill:none;stroke:#000000;stroke-width:2"
       d="m 433,107 v 326 h 132 l 17,-29 12,-29 10,-31 6,-32 3,-31 -1,-32 -4,-32 -7,-32 -11,-30 -14,-29 -11,-19 H 433"
       id="path1295" />
    <path
       style="fill:#f0f0f0"
       d="M 126,359 411,524 474,411 192,246 Z"
       id="path1297" />
    <path
       style="fill:#f0f0f0"
       d="m 126,359 h 33 l 33,4 31,7 31,10 29,14 28,17 26,19 23,22 21,25 19,27 5,10 6,10 3,-7 16,-29 16,-28 17,-28 8,-14 3,-7 -4,-10 -17,-29 -21,-25 -22,-24 -25,-20 -27,-18 -29,-14 -30,-12 -32,-8 -32,-4 -10,-1 h -12 -10 -11 l -17,29 -16,28 -17,28 -12,21 z"
       id="path1299" />
    <path
       style="fill:none;stroke:#000000;stroke-width:2"
       d="m 126,359 285,165 63,-113 -16,-30 -19,-26 -21,-24 -24,-22 -27,-18 -28,-16 -30,-12 -31,-10 -32,-5 -33,-2 h -21 l -66,113"
       id="path1301" />
    <path
       style="fill:#f0f0f0"
       d="M 192,752 474,587 411,474 126,639 Z"
       id="path1303" />
    <path
       style="fill:#f0f0f0"
       d="m 192,752 16,-29 20,-26 21,-24 24,-22 27,-18 28,-16 29,-13 31,-9 32,-6 33,-2 h 10 11 l -3,-7 -16,-28 -16,-28 -16,-28 -12,-22 h -12 -11 l -33,2 -32,6 -31,9 -30,13 -28,16 -26,18 -25,22 -21,24 -20,26 -11,19 -5,10 4,7 16,28 17,28 16,29 9,14 z"
       id="path1305" />
    <path
       style="fill:none;stroke:#000000;stroke-width:2"
       d="M 192,752 474,587 411,474 h -12 l -33,1 -32,5 -32,8 -30,12 -29,14 -27,18 -25,20 -22,23 -21,26 -17,28 -5,10 66,113"
       id="path1307" />
    <circle
       style="fill:#f0f0f0;stroke:#000000;stroke-width:2"
       cx="499"
       cy="499"
       r="115"
       id="circle1309" />
    <circle
       style="fill:#f0f0f0"
       cx="499"
       cy="499"
       r="98"
       id="circle1311" />
    <circle
       style="fill:#f0f0f0"
       cx="499"
       cy="499"
       r="32"
       id="circle1313" />
  </g>
  <path
     style="fill:#f0f0f0"
     d="M86,946 l59,0 0,19 -59,0 0,-19z"
     id="path1315" />
  <path
     style="fill:#f0f0f0"
     d="M165,946 l59,0 0,19 -59,0 0,-19z"
     id="path1317" />
  <path
     style="fill:#f0f0f0"
     d="M303,946 l58,0 0,19 -58,0 0,-19z"
     id="path1319" />
  <path
     style="fill:#f0f0f0"
     d="M912,965 l-59,0 0,-19 59,0 0,19z"
     id="path1321" />
  <path
     style="fill:#f0f0f0"
     d="M833,965 l-59,0 0,-19 59,0 0,19z"
     id="path1323" />
  <path
     style="fill:#f0f0f0"
     d="M695,965 l-58,0 0,-19 58,0 0,19z"
     id="path1325" />
</svg>
