<?xml version="1.0" encoding="iso-8859-1"?>
<!DOCTYPE svg PUBLIC "-//W3C//DTD SVG 20000303 Stylable//EN"
"http://www.w3.org/TR/2000/03/WD-SVG-20000303/DTD/svg-20000303-stylable.dtd">

<svg width="1.4792in" height="1.4792in" viewBox="0 0 530 530">

<path style="fill:#7f7f7f" d="M15,46 l6,-16 14,-12 6,-2 6,-1 27,0 409,0 17,6 12,14 2,5 1,6 0,27 0,411 -6,16 -14,12 -6,2 -6,1 -27,0 -409,0 -17,-6 -12,-14 -2,-5 -1,-6 0,-27 0,-411z" />
<path style="fill:#999" d="M46,46 l5,-16 12,-12 5,-2 5,-1 24,0 360,0 15,6 10,14 1,5 1,6 0,27 0,411 -5,16 -12,12 -5,2 -5,1 -24,0 -360,0 -15,-6 -10,-14 -1,-5 -1,-6 0,-27 0,-411z" />
<path style="fill:#b2b2b2" d="M93,46 l0,-6 7,-15 11,-9 4,-1 19,0 281,0 12,6 8,14 2,5 0,6 0,444 -7,15 -11,9 -4,1 -19,0 -281,0 -12,-6 -8,-14 -2,-5 0,-6 0,-438z" />
<path style="fill:#ccc" d="M155,46 l3,-16 6,-12 2,-2 3,-1 12,0 180,0 3,1 8,14 2,5 1,5 0,6 0,444 -4,15 -7,9 -3,1 -12,0 -180,0 -3,-1 -8,-14 -2,-5 -1,-5 0,-6 0,-438z" />
<path style="fill:#e5e5e5" d="M210,46 l1,-16 5,-14 1,-1 12,0 84,0 6,15 0,5 1,5 0,6 0,444 -2,15 -4,9 -1,1 -12,0 -84,0 -6,-15 0,-5 -1,-5 0,-6 0,-438z" />
<path style="fill:#fff" d="M257,46 l0,-6 0,-5 0,-5 1,-14 0,-1 4,0 10,0 0,6 1,4 0,5 0,475 -1,9 0,1 -4,0 -10,0 -1,-15 0,-454z" />
<path style="fill:none;stroke:#000;stroke-width:2" d="M15,46 l6,-16 14,-12 5,-2 6,-1 27,0 411,0 16,6 12,14 2,5 1,6 0,27 0,411 -6,16 -14,12 -5,2 -6,1 -27,0 -411,0 -16,-6 -12,-14 -2,-5 -1,-6 0,-27 0,-411" />

</svg>
