<?xml version="1.0" encoding="iso-8859-1"?>
<!DOCTYPE svg PUBLIC "-//W3C//DTD SVG 20000303 Stylable//EN"
"http://www.w3.org/TR/2000/03/WD-SVG-20000303/DTD/svg-20000303-stylable.dtd">

<svg width="1.7999in" height="1.4792in" viewBox="0 0 999 821">

<path style="fill:#ccc;stroke:#000;stroke-width:2" d="M207,633 l-179,-176 365,-365 74,73 73,-73 364,364 -73,73 -110,104 0,107 -512,0 -2,-107z" />
<path style="fill:none;stroke:#7f7f7f;stroke-width:2" d="M721,633 l-254,-468 -257,468" />
<path style="fill:none;stroke:#7f7f7f;stroke-width:2" d="M210,631 l519,0" />
<path style="fill:#4c4c4c;stroke:#000;stroke-width:2" d="M508,94 l55,-55 -11,-11 -55,54 11,12z" />
<path style="fill:#4c4c4c;stroke:#000;stroke-width:2" d="M916,501 l54,-55 -11,-11 -57,55 14,11z" />
<path style="fill:#b2b2b2;stroke:#000;stroke-width:2" d="M505,54 l19,-17 437,437 -19,19 -437,-439z" />
<path style="fill:#4c4c4c;stroke:#000;stroke-width:2" d="M748,716 l0,77 17,0 0,-77 -17,0z" />
<path style="fill:#4c4c4c;stroke:#000;stroke-width:2" d="M173,716 l0,77 15,0 0,-77 -15,0z" />
<path style="fill:#b2b2b2;stroke:#000;stroke-width:2" d="M778,740 l0,27 -618,0 0,-27 618,0z" />

</svg>
