<?xml version="1.0" encoding="iso-8859-1"?>
<!DOCTYPE svg PUBLIC "-//W3C//DTD SVG 20000303 Stylable//EN"
"http://www.w3.org/TR/2000/03/WD-SVG-20000303/DTD/svg-20000303-stylable.dtd">

<svg width="1.9092in" height="1.4792in" viewBox="0 0 999 774">

<path style="fill:#b2b2b2;stroke:#000;stroke-width:2" d="M895,689 l-867,0 0,-605 867,0 0,605z" />
<path style="fill:#ccc" d="M878,670 l0,-567 -416,284 416,283z" />
<path style="fill:#d9d9d9" d="M462,385 l416,283 -831,0 415,-283z" />
<path style="fill:#bfbfbf" d="M47,670 l0,-567 415,284 -415,283z" />
<path style="fill:#4c4c4c;stroke:#000;stroke-width:2" d="M970,47 l-113,0 0,18 113,0 0,-18z" />
<path style="fill:#4c4c4c;stroke:#000;stroke-width:2" d="M970,706 l-113,0 0,21 113,0 0,-21z" />
<path style="fill:#b2b2b2;stroke:#000;stroke-width:2" d="M933,746 l-38,0 0,-718 38,0 0,718z" />

</svg>
