<?xml version="1.0" encoding="UTF-8" standalone="no"?>
<svg
   xmlns:dc="http://purl.org/dc/elements/1.1/"
   xmlns:cc="http://creativecommons.org/ns#"
   xmlns:rdf="http://www.w3.org/1999/02/22-rdf-syntax-ns#"
   xmlns:svg="http://www.w3.org/2000/svg"
   xmlns="http://www.w3.org/2000/svg"
   xmlns:sodipodi="http://sodipodi.sourceforge.net/DTD/sodipodi-0.dtd"
   xmlns:inkscape="http://www.inkscape.org/namespaces/inkscape"
   width="0.9254in"
   height="1.4792in"
   viewBox="0 0 625 999"
   version="1.1"
   id="svg3205"
   sodipodi:docname="PUMP_5.svg"
   inkscape:version="1.0.2-2 (e86c870879, 2021-01-15)">
  <metadata
     id="metadata3211">
    <rdf:RDF>
      <cc:Work
         rdf:about="">
        <dc:format>image/svg+xml</dc:format>
        <dc:type
           rdf:resource="http://purl.org/dc/dcmitype/StillImage" />
      </cc:Work>
    </rdf:RDF>
  </metadata>
  <defs
     id="defs3209" />
  <sodipodi:namedview
     pagecolor="#ffffff"
     bordercolor="#666666"
     borderopacity="1"
     objecttolerance="10"
     gridtolerance="10"
     guidetolerance="10"
     inkscape:pageopacity="0"
     inkscape:pageshadow="2"
     inkscape:window-width="1920"
     inkscape:window-height="1017"
     id="namedview3207"
     showgrid="false"
     inkscape:zoom="5.9857806"
     inkscape:cx="44.419201"
     inkscape:cy="71.0016"
     inkscape:window-x="-8"
     inkscape:window-y="-8"
     inkscape:window-maximized="1"
     inkscape:current-layer="svg3205" />
  <path
     style="fill:#999"
     d="M185,970 l353,0 0,-137 -353,0 0,137z"
     id="path3109" />
  <path
     style="fill:#b2b2b2"
     d="M235,970 l253,0 0,-137 -253,0 0,137z"
     id="path3111" />
  <path
     style="fill:#ccc"
     d="M298,970 l127,0 0,-137 -127,0 0,137z"
     id="path3113" />
  <path
     style="fill:none;stroke:#000;stroke-width:2"
     d="M185,970 l353,0 0,-137 -353,0 0,137"
     id="path3115" />
  <path
     style="fill:#f2ffff;stroke:#000;stroke-width:2"
     d="M204,244 l314,0 0,471 -314,0 0,-471z"
     id="path3117" />
  <g
     id="HA_ANI"
     inkscape:label="HA_ANI">
    <path
       style="fill:#99a6a6"
       d="M224,244 l275,0 0,471 -275,0 0,-471z"
       id="path3119" />
    <path
       style="fill:#b2bfbf"
       d="M263,244 l197,0 0,471 -197,0 0,-471z"
       id="path3121" />
    <path
       style="fill:#ccd9d9"
       d="M312,244 l98,0 0,471 -98,0 0,-471z"
       id="path3123" />
  </g>
  <path
     style="fill:none;stroke:#000;stroke-width:2"
     d="M224,244 l275,0 0,471 -275,0 0,-471"
     id="path3125" />
  <path
     style="fill:#7f7f7f;stroke:#000;stroke-width:2"
     d="M185,244 l19,0 0,471 -19,0 0,-471z"
     id="path3127" />
  <path
     style="fill:#7f7f7f;stroke:#000;stroke-width:2"
     d="M519,244 l19,0 0,471 -19,0 0,-471z"
     id="path3129" />
  <path
     style="fill:#7f7f7f;stroke:#000;stroke-width:2"
     d="M352,244 l19,0 0,471 -19,0 0,-471z"
     id="path3131" />
  <path
     style="fill:#bfbfbf"
     d="M185,244 l353,0 0,-59 -353,0 0,59z"
     id="path3133" />
  <path
     style="fill:#d9d9d9"
     d="M235,244 l253,0 0,-59 -253,0 0,59z"
     id="path3135" />
  <path
     style="fill:#f2f2f2"
     d="M298,244 l127,0 0,-59 -127,0 0,59z"
     id="path3137" />
  <path
     style="fill:none;stroke:#000;stroke-width:2"
     d="M185,244 l353,0 0,-59 -353,0 0,59"
     id="path3139" />
  <path
     style="fill:#bfbfbf"
     d="M204,185 l314,0 0,-98 -314,0 0,98z"
     id="path3141" />
  <path
     style="fill:#d9d9d9"
     d="M249,185 l225,0 0,-98 -225,0 0,98z"
     id="path3143" />
  <path
     style="fill:#f2f2f2"
     d="M305,185 l113,0 0,-98 -113,0 0,98z"
     id="path3145" />
  <path
     style="fill:none;stroke:#000;stroke-width:2"
     d="M204,185 l314,0 0,-98 -314,0 0,98"
     id="path3147" />
  <path
     style="fill:#bfbfbf"
     d="M185,774 l353,0 0,-59 -353,0 0,59z"
     id="path3149" />
  <path
     style="fill:#d9d9d9"
     d="M235,774 l253,0 0,-59 -253,0 0,59z"
     id="path3151" />
  <path
     style="fill:#f2f2f2"
     d="M298,774 l127,0 0,-59 -127,0 0,59z"
     id="path3153" />
  <path
     style="fill:none;stroke:#000;stroke-width:2"
     d="M185,774 l353,0 0,-59 -353,0 0,59"
     id="path3155" />
  <path
     style="fill:#7f7f7f;stroke:#000;stroke-width:2"
     d="M165,715 l59,0 0,59 -59,0 0,-59z"
     id="path3157" />
  <path
     style="fill:#a6a6a6;stroke:#000;stroke-width:2"
     d="M322,715 l79,0 0,59 -79,0 0,-59z"
     id="path3159" />
  <path
     style="fill:#7f7f7f;stroke:#000;stroke-width:2"
     d="M499,715 l59,0 0,59 -59,0 0,-59z"
     id="path3161" />
  <path
     style="fill:#bfbfbf"
     d="M28,833 l569,0 0,-59 -569,0 0,59z"
     id="path3163" />
  <path
     style="fill:#d9d9d9"
     d="M193,833 l336,0 0,-59 -336,0 0,59z"
     id="path3165" />
  <path
     style="fill:#f2f2f2"
     d="M277,833 l169,0 0,-59 -169,0 0,59z"
     id="path3167" />
  <path
     style="fill:none;stroke:#000;stroke-width:2"
     d="M28,833 l569,0 0,-59 -569,0 0,59"
     id="path3169" />
  <path
     style="fill:#4c4c4c"
     d="M28,774 l118,0 0,-98 -118,0 0,98z"
     id="path3171" />
  <path
     style="fill:#666"
     d="M44,774 l85,0 0,-98 -85,0 0,98z"
     id="path3173" />
  <path
     style="fill:#7f7f7f"
     d="M62,774 l50,0 0,-98 -50,0 0,98z"
     id="path3175" />
  <path
     style="fill:none;stroke:#000;stroke-width:2"
     d="M28,774 l118,0 0,-98 -118,0 0,98"
     id="path3177" />
  <path
     style="fill:#d9d9d9;stroke:#000;stroke-width:2"
     d="M342,87 l39,0 0,-59 -39,0 0,59z"
     id="path3179" />
  <path
     style="fill:#a6a6a6;stroke:#000;stroke-width:2"
     d="M440,87 l39,0 0,-20 -39,0 0,20z"
     id="path3181" />
  <path
     style="fill:#4c4c4c;stroke:#000;stroke-width:2"
     d="M450,67 l-1,-3 2,-3 9,-6 12,-6 8,-5 1,-1 -1,-2 -13,-1 -13,1 -18,1 -24,2 -31,3 0,-14 25,-3 22,-1 19,-1 15,0 12,0 11,1 12,4 3,3 1,3 -5,8 -11,9 -7,6 -9,5 -19,0z"
     id="path3183" />
  <path
     style="fill:#333;stroke:#000;stroke-width:2"
     d="M204,926 l79,0 0,24 -79,0 0,-24z"
     id="path3185" />
  <path
     style="fill:#333;stroke:#000;stroke-width:2"
     d="M322,926 l79,0 0,24 -79,0 0,-24z"
     id="path3187" />
  <path
     style="fill:#333;stroke:#000;stroke-width:2"
     d="M440,926 l78,0 0,24 -78,0 0,-24z"
     id="path3189" />
  <path
     style="fill:#333;stroke:#000;stroke-width:2"
     d="M204,852 l79,0 0,25 -79,0 0,-25z"
     id="path3191" />
  <path
     style="fill:#333;stroke:#000;stroke-width:2"
     d="M322,852 l79,0 0,25 -79,0 0,-25z"
     id="path3193" />
  <path
     style="fill:#333;stroke:#000;stroke-width:2"
     d="M440,852 l78,0 0,25 -78,0 0,-25z"
     id="path3195" />
  <path
     style="fill:#333;stroke:#000;stroke-width:2"
     d="M263,889 l79,0 0,25 -79,0 0,-25z"
     id="path3197" />
  <path
     style="fill:#333;stroke:#000;stroke-width:2"
     d="M381,889 l78,0 0,25 -78,0 0,-25z"
     id="path3199" />
  <path
     style="fill:#333;stroke:#000;stroke-width:2"
     d="M499,889 l19,0 0,25 -19,0 0,-25z"
     id="path3201" />
  <path
     style="fill:#333;stroke:#000;stroke-width:2"
     d="M204,889 l20,0 0,25 -20,0 0,-25z"
     id="path3203" />
</svg>
