<?xml version="1.0" encoding="UTF-8" standalone="no"?>
<svg
   xmlns:dc="http://purl.org/dc/elements/1.1/"
   xmlns:cc="http://creativecommons.org/ns#"
   xmlns:rdf="http://www.w3.org/1999/02/22-rdf-syntax-ns#"
   xmlns:svg="http://www.w3.org/2000/svg"
   xmlns="http://www.w3.org/2000/svg"
   xmlns:sodipodi="http://sodipodi.sourceforge.net/DTD/sodipodi-0.dtd"
   xmlns:inkscape="http://www.inkscape.org/namespaces/inkscape"
   width="1.5393in"
   height="1.4792in"
   viewBox="0 0 998 959"
   version="1.1"
   id="svg1102"
   sodipodi:docname="Cool pump.svg"
   inkscape:version="1.0.2-2 (e86c870879, 2021-01-15)">
  <metadata
     id="metadata1108">
    <rdf:RDF>
      <cc:Work
         rdf:about="">
        <dc:format>image/svg+xml</dc:format>
        <dc:type
           rdf:resource="http://purl.org/dc/dcmitype/StillImage" />
      </cc:Work>
    </rdf:RDF>
  </metadata>
  <defs
     id="defs1106" />
  <sodipodi:namedview
     pagecolor="#ffffff"
     bordercolor="#666666"
     borderopacity="1"
     objecttolerance="10"
     gridtolerance="10"
     guidetolerance="10"
     inkscape:pageopacity="0"
     inkscape:pageshadow="2"
     inkscape:window-width="1920"
     inkscape:window-height="1017"
     id="namedview1104"
     showgrid="false"
     inkscape:zoom="4.0061501"
     inkscape:cx="73.886398"
     inkscape:cy="71.0016"
     inkscape:window-x="-8"
     inkscape:window-y="-8"
     inkscape:window-maximized="1"
     inkscape:current-layer="svg1102" />
  <path
     style="fill:#666;stroke:#000;stroke-width:2"
     d="M108,930 l78,-273 471,0 78,273 -158,0 -156,-235 -158,235 -155,0z"
     id="path1046" />
  <path
     style="fill:#7f7f7f"
     d="M797,359 l8,30 5,32 2,32 -2,46 -5,39 -10,37 -13,36 -17,35 -20,32 -22,31 -25,28 -28,25 -30,23 -32,20 -35,16 -36,14 -37,9 -39,6 -20,2 -20,1 -20,-1 -39,-4 -39,-8 -36,-11 -36,-16 -33,-18 -32,-21 -29,-24 -26,-27 -25,-29 -21,-32 -18,-33 -15,-35 -12,-37 -8,-38 -4,-40 0,-20 0,-20 4,-39 8,-39 12,-36 15,-35 18,-34 21,-31 25,-29 26,-26 29,-24 32,-22 33,-18 36,-14 36,-12 39,-8 39,-4 20,0 549,0 0,293 -173,-2z"
     id="path1048" />
  <path
     style="fill:#ccc"
     d="M970,143 l-549,0 0,-75 549,0 0,75z"
     id="path1050" />
  <path
     style="fill:#b2b2b2"
     d="M970,210 l-549,0 0,-76 549,0 0,76z"
     id="path1052" />
  <path
     style="fill:#999"
     d="M970,286 l-549,0 0,-76 549,0 0,76z"
     id="path1054" />
  <path
     style="fill:#ccc"
     d="M421,459 l-278,278 -19,-21 -18,-22 -16,-24 -15,-25 -12,-26 -11,-27 -9,-28 -7,-28 -5,-29 -3,-29 0,-9 0,-10 0,-20 4,-39 8,-39 12,-36 15,-35 18,-34 21,-31 25,-29 26,-26 29,-24 32,-22 33,-18 36,-14 36,-12 39,-8 39,-4 20,0 10,0 29,2 28,4 28,6 28,8 27,10 26,12 26,13 24,16 23,17 22,19 7,6 -278,278z"
     id="path1056" />
  <path
     style="fill:#999"
     d="M421,459 l278,-278 19,22 18,22 16,24 14,25 13,26 10,27 9,28 7,28 4,28 3,29 0,9 0,10 0,20 -4,40 -8,38 -11,37 -15,35 -18,33 -21,32 -24,29 -27,27 -29,24 -31,21 -33,18 -35,16 -37,11 -38,8 -40,4 -20,1 -9,-1 -29,-2 -29,-4 -28,-6 -28,-8 -27,-11 -27,-12 -25,-14 -25,-15 -22,-18 -22,-19 -7,-6 278,-278z"
     id="path1058" />
  <circle
     style="fill:#b2b2b2"
     cx="421"
     cy="459"
     r="353"
     id="HA_ANI"
     inkscape:label="HA_ANI" />
  <circle
     style="fill:#7f7f7f"
     cx="420"
     cy="460"
     r="157"
     id="circle1062" />
  <circle
     style="fill:#333"
     cx="421"
     cy="459"
     r="118"
     id="circle1064" />
  <path
     style="fill:#7f7f7f"
     d="M303,450 l236,0 0,18 -236,0 0,-18z"
     id="path1066" />
  <path
     style="fill:#7f7f7f"
     d="M355,557 l117,-205 16,9 -118,205 -15,-9z"
     id="path1068" />
  <path
     style="fill:#7f7f7f"
     d="M370,352 l118,205 -16,9 -117,-205 15,-9z"
     id="path1070" />
  <circle
     style="fill:#ccc"
     cx="421"
     cy="459"
     r="24"
     id="circle1072" />
  <path
     style="fill:none;stroke:#000;stroke-width:2"
     d="M797,359 l8,30 5,32 2,32 -2,46 -5,39 -10,37 -13,36 -17,35 -20,32 -22,31 -25,28 -28,25 -30,23 -32,20 -35,16 -36,14 -37,9 -39,6 -20,2 -20,1 -20,-1 -39,-4 -39,-8 -36,-11 -36,-16 -33,-18 -32,-21 -29,-24 -26,-27 -25,-29 -21,-32 -18,-33 -15,-35 -12,-37 -8,-38 -4,-40 0,-20 0,-20 4,-39 8,-39 12,-36 15,-35 18,-34 21,-31 25,-29 26,-26 29,-24 32,-22 33,-18 36,-14 36,-12 39,-8 39,-4 20,0 549,0 0,293 -173,-2"
     id="path1074" />
  <path
     style="fill:#7f7f7f"
     d="M877,28 l93,0 0,373 -93,0 0,-373z"
     id="path1076" />
  <path
     style="fill:#999"
     d="M877,50 l93,0 0,329 -93,0 0,-329z"
     id="path1078" />
  <path
     style="fill:#b2b2b2"
     d="M877,90 l93,0 0,249 -93,0 0,-249z"
     id="path1080" />
  <path
     style="fill:#ccc"
     d="M877,130 l93,0 0,169 -93,0 0,-169z"
     id="path1082" />
  <path
     style="fill:#e5e5e5"
     d="M877,159 l93,0 0,109 -93,0 0,-109z"
     id="path1084" />
  <path
     style="fill:#fff"
     d="M877,192 l93,0 0,45 -93,0 0,-45z"
     id="path1086" />
  <path
     style="fill:none;stroke:#000;stroke-width:2"
     d="M877,28 l93,0 0,373 -93,0 0,-373"
     id="path1088" />
  <path
     style="fill:none;stroke:#000;stroke-width:2"
     d="M310,570 l-8,-8 -7,-9 -6,-10 -6,-9 -6,-11 -4,-10 -3,-12 -3,-11 -2,-11 -1,-12 -1,-4 0,-4 1,-16 3,-16 4,-14 5,-15 7,-14 8,-12 9,-12 10,-11 11,-10 12,-9 13,-8 14,-6 15,-6 15,-3 15,-3 8,0 8,-1 4,0 11,1 12,2 11,2 11,3 11,4 11,5 10,5 10,6 9,7 9,7 2,3"
     id="path1090" />
  <path
     style="fill:none;stroke:#fff;stroke-width:2"
     d="M532,348 l8,8 7,9 7,10 5,10 5,11 4,11 3,11 3,11 2,11 1,12 0,3 0,4 -1,16 -2,16 -4,15 -5,14 -7,14 -8,13 -8,12 -10,12 -11,10 -12,9 -13,8 -14,6 -14,6 -15,4 -16,2 -8,1 -8,0 -4,0 -11,-1 -12,-2 -12,-2 -11,-3 -10,-5 -11,-5 -10,-5 -9,-7 -10,-7 -8,-7 -3,-3"
     id="path1092" />
  <path
     style="fill:none;stroke:#000;stroke-width:2"
     d="M670,210 l23,26 16,20 14,22 13,23 11,24 9,24 7,25 6,25 5,34 0,18 1,8 -1,18 -3,36 -8,35 -10,33 -14,31 -16,30 -19,29 -22,26 -24,24 -26,21 -28,19 -30,17 -32,13 -33,10 -34,7 -36,4 -18,0 -8,0 -35,-2 -35,-6 -25,-7 -24,-8 -24,-10 -24,-12 -22,-14 -21,-15 -20,-16 -7,-6 -6,-6"
     id="path1094" />
  <path
     style="fill:none;stroke:#fff;stroke-width:2"
     d="M170,710 l-23,-26 -15,-21 -14,-22 -13,-23 -10,-23 -9,-25 -8,-25 -5,-25 -4,-35 -1,-17 0,-9 0,-18 4,-35 7,-35 10,-33 13,-31 17,-30 19,-29 21,-26 24,-24 27,-22 28,-19 30,-16 32,-14 33,-10 34,-7 36,-4 18,0 9,0 34,2 34,7 25,7 25,8 24,11 23,12 22,14 21,15 26,22 6,6"
     id="path1096" />
  <path
     style="fill:#7f7f7f;stroke:#000;stroke-width:2"
     d="M28,890 l275,0 0,40 -275,0 0,-40z"
     id="path1098" />
  <path
     style="fill:#7f7f7f;stroke:#000;stroke-width:2"
     d="M539,890 l273,0 0,40 -273,0 0,-40z"
     id="path1100" />
</svg>
