<?xml version="1.0" encoding="UTF-8" standalone="no"?>
<svg
   xmlns:dc="http://purl.org/dc/elements/1.1/"
   xmlns:cc="http://creativecommons.org/ns#"
   xmlns:rdf="http://www.w3.org/1999/02/22-rdf-syntax-ns#"
   xmlns:svg="http://www.w3.org/2000/svg"
   xmlns="http://www.w3.org/2000/svg"
   xmlns:sodipodi="http://sodipodi.sourceforge.net/DTD/sodipodi-0.dtd"
   xmlns:inkscape="http://www.inkscape.org/namespaces/inkscape"
   width="1.4792in"
   height="1.4792in"
   viewBox="0 0 999 999"
   version="1.1"
   id="svg1217"
   sodipodi:docname="Simple pump 3.svg"
   inkscape:version="1.0.2-2 (e86c870879, 2021-01-15)">
  <metadata
     id="metadata1223">
    <rdf:RDF>
      <cc:Work
         rdf:about="">
        <dc:format>image/svg+xml</dc:format>
        <dc:type
           rdf:resource="http://purl.org/dc/dcmitype/StillImage" />
      </cc:Work>
    </rdf:RDF>
  </metadata>
  <defs
     id="defs1221" />
  <sodipodi:namedview
     pagecolor="#ffffff"
     bordercolor="#666666"
     borderopacity="1"
     objecttolerance="10"
     gridtolerance="10"
     guidetolerance="10"
     inkscape:pageopacity="0"
     inkscape:pageshadow="2"
     inkscape:window-width="1920"
     inkscape:window-height="1017"
     id="namedview1219"
     showgrid="false"
     inkscape:zoom="5.9857806"
     inkscape:cx="71.0016"
     inkscape:cy="71.0016"
     inkscape:window-x="-8"
     inkscape:window-y="-8"
     inkscape:window-maximized="1"
     inkscape:current-layer="svg1217" />
  <path
     style="fill:#0ff;stroke:#000;stroke-width:2"
     d="M655,735 l27,-22 25,-24 23,-26 19,-28 18,-29 15,-31 12,-32 9,-33 7,-33 3,-34 1,-23 156,0 0,-392 -550,0 -40,2 -39,6 -37,10 -36,13 -34,17 -33,19 -30,23 -28,25 -25,28 -23,30 -19,33 -17,34 -13,36 -10,37 -6,39 -2,20 0,20 0,11 3,35 5,34 9,33 11,32 14,31 17,30 19,29 21,26 24,24 26,23 9,7 -119,235 707,0 -119,-235z"
     id="HA_ANI"
     inkscape:label="HA_ANI" />
  <path
     style="fill:none;stroke:#000;stroke-width:2"
     d="M657,735 l-26,18 -27,16 -29,13 -30,11 -31,9 -31,6 -31,5 -16,0 -8,1 -8,0 -32,-1 -31,-5 -30,-6 -30,-10 -30,-11 -28,-13 -27,-16 -20,-13 -6,-4"
     id="path1215" />
</svg>
