<?xml version="1.0" encoding="UTF-8" standalone="no"?>
<svg
   xmlns:dc="http://purl.org/dc/elements/1.1/"
   xmlns:cc="http://creativecommons.org/ns#"
   xmlns:rdf="http://www.w3.org/1999/02/22-rdf-syntax-ns#"
   xmlns:svg="http://www.w3.org/2000/svg"
   xmlns="http://www.w3.org/2000/svg"
   xmlns:sodipodi="http://sodipodi.sourceforge.net/DTD/sodipodi-0.dtd"
   xmlns:inkscape="http://www.inkscape.org/namespaces/inkscape"
   width="3.2692in"
   height="1.4792in"
   viewBox="0 0 999 452"
   version="1.1"
   id="svg1395"
   sodipodi:docname="PUMP_1.svg"
   inkscape:version="1.0.2-2 (e86c870879, 2021-01-15)">
  <metadata
     id="metadata1401">
    <rdf:RDF>
      <cc:Work
         rdf:about="">
        <dc:format>image/svg+xml</dc:format>
        <dc:type
           rdf:resource="http://purl.org/dc/dcmitype/StillImage" />
      </cc:Work>
    </rdf:RDF>
  </metadata>
  <defs
     id="defs1399" />
  <sodipodi:namedview
     pagecolor="#ffffff"
     bordercolor="#666666"
     borderopacity="1"
     objecttolerance="10"
     gridtolerance="10"
     guidetolerance="10"
     inkscape:pageopacity="0"
     inkscape:pageshadow="2"
     inkscape:window-width="1920"
     inkscape:window-height="1017"
     id="namedview1397"
     showgrid="false"
     inkscape:zoom="3.3201292"
     inkscape:cx="156.9216"
     inkscape:cy="71.0016"
     inkscape:window-x="-8"
     inkscape:window-y="-8"
     inkscape:window-maximized="1"
     inkscape:current-layer="svg1395" />
  <path
     style="fill:#4c4c4c;stroke:#000;stroke-width:2"
     d="M795,167 l-23,-117 115,0 -22,117 -70,0z"
     id="path1285" />
  <path
     style="fill:#7f7f7f"
     d="M28,318 l4,28 11,24 18,20 23,14 27,6 9,0 466,0 92,-22 0,-234 -92,-23 -466,0 -27,5 -24,11 -20,18 -14,24 -7,27 0,10 0,92z"
     id="path1287" />
  <path
     style="fill:#999"
     d="M28,311 l7,30 20,24 29,17 27,5 9,1 466,0 92,-19 0,-194 -92,-21 -466,0 -27,4 -24,10 -26,21 -13,29 -2,15 0,78z"
     id="path1289" />
  <path
     style="fill:#b2b2b2"
     d="M28,295 l15,26 26,13 33,6 9,1 475,0 92,-12 0,-117 -92,-11 -466,0 -27,2 -32,9 -22,14 -11,22 0,47z"
     id="path1291" />
  <path
     style="fill:#ccc"
     d="M28,280 l2,3 25,8 29,3 27,1 475,0 92,-3 0,-40 -92,-4 -475,0 -35,2 -27,4 -19,7 -2,2 0,17z"
     id="path1293" />
  <path
     style="fill:none;stroke:#000;stroke-width:2"
     d="M120,131 l0,281"
     id="path1295" />
  <path
     style="fill:none;stroke:#000;stroke-width:2"
     d="M586,131 l0,281"
     id="path1297" />
  <path
     style="fill:#4c4c4c;stroke:#000;stroke-width:2"
     d="M214,131 l349,0 0,234 -349,0 0,-234z"
     id="path1299" />
  <path
     style="fill:#000;stroke:#000;stroke-width:2"
     d="M120,412 l466,0 0,12 -466,0 0,-12z"
     id="path1317" />
  <path
     style="fill:#333;stroke:#000;stroke-width:2"
     d="M678,167 l70,0 0,209 -70,0 0,-209z"
     id="path1319" />
  <path
     style="fill:none;stroke:#000;stroke-width:2"
     d="M28,318 l4,28 11,24 18,20 23,14 27,6 9,0 466,0 92,-22 0,-234 -92,-23 -466,0 -27,5 -24,11 -20,18 -14,24 -7,27 0,10 0,92"
     id="path1329" />
  <path
     style="fill:#7f7f7f"
     d="M748,131 l24,0 0,281 -24,0 0,-281z"
     id="path1331" />
  <path
     style="fill:#7f7f7f"
     d="M865,167 l47,23 22,0 0,164 -22,0 -47,22 0,-209z"
     id="path1333" />
  <path
     style="fill:#bfbfbf"
     d="M934,143 l25,0 0,258 -25,0 0,-258z"
     id="path1335" />
  <path
     style="fill:#999"
     d="M865,184 l47,19 22,0 0,136 -22,0 -47,21 0,-176z"
     id="path1337" />
  <path
     style="fill:#b2b2b2"
     d="M865,220 l47,11 22,0 0,81 -22,0 -47,12 0,-104z"
     id="path1339" />
  <path
     style="fill:#ccc"
     d="M865,254 l47,4 22,0 0,26 -22,0 -47,6 0,-36z"
     id="path1341" />
  <path
     style="fill:none;stroke:#000;stroke-width:2"
     d="M865,167 l47,23 22,0 0,164 -22,0 -47,22 0,-209"
     id="path1343" />
  <path
     style="fill:none;stroke:#000;stroke-width:2"
     d="M912,354 l0,-164"
     id="path1345" />
  <path
     style="fill:#d9d9d9"
     d="M934,179 l25,0 0,186 -25,0 0,-186z"
     id="path1347" />
  <path
     style="fill:#f2f2f2"
     d="M934,212 l25,0 0,117 -25,0 0,-117z"
     id="path1349" />
  <path
     style="fill:#fff"
     d="M934,248 l25,0 0,47 -25,0 0,-47z"
     id="path1351" />
  <path
     style="fill:none;stroke:#000;stroke-width:2"
     d="M934,143 l25,0 0,258 -25,0 0,-258"
     id="path1353" />
  <path
     style="fill:#999"
     d="M748,156 l24,0 0,234 -24,0 0,-234z"
     id="path1355" />
  <path
     style="fill:#b2b2b2"
     d="M748,201 l24,0 0,142 -24,0 0,-142z"
     id="path1357" />
  <path
     style="fill:#ccc"
     d="M748,248 l24,0 0,47 -24,0 0,-47z"
     id="path1359" />
  <path
     style="fill:none;stroke:#000;stroke-width:2"
     d="M748,131 l24,0 0,281 -24,0 0,-281"
     id="path1361" />
  <path
     style="fill:#7f7f7f"
     d="M689,50 l0,-22 281,0 0,22 -281,0z"
     id="path1363" />
  <path
     style="fill:#999"
     d="M712,50 l0,-22 234,0 0,22 -234,0z"
     id="path1365" />
  <path
     style="fill:#b2b2b2"
     d="M759,50 l0,-22 141,0 0,22 -141,0z"
     id="path1367" />
  <path
     style="fill:#ccc"
     d="M806,50 l0,-22 47,0 0,22 -47,0z"
     id="path1369" />
  <path
     style="fill:none;stroke:#000;stroke-width:2"
     d="M689,50 l0,-22 281,0 0,22 -281,0"
     id="path1371" />
  <path
     style="fill:#7f7f7f"
     d="M795,143 l70,0 0,281 -70,0 0,-281z"
     id="path1373" />
  <path
     style="fill:#999"
     d="M795,167 l70,0 0,234 -70,0 0,-234z"
     id="path1375" />
  <path
     style="fill:#b2b2b2"
     d="M795,214 l70,0 0,140 -70,0 0,-140z"
     id="path1377" />
  <path
     style="fill:#ccc"
     d="M795,260 l70,0 0,47 -70,0 0,-47z"
     id="path1379" />
  <path
     style="fill:none;stroke:#000;stroke-width:2"
     d="M795,143 l70,0 0,281 -70,0 0,-281"
     id="path1381" />
  <path
     style="fill:#4c4c4c"
     d="M772,167 l23,0 0,209 -23,0 0,-209z"
     id="path1383" />
  <path
     style="fill:#666"
     d="M772,184 l23,0 0,176 -23,0 0,-176z"
     id="path1385" />
  <path
     style="fill:#7f7f7f"
     d="M772,218 l23,0 0,106 -23,0 0,-106z"
     id="path1387" />
  <path
     style="fill:#999"
     d="M772,254 l23,0 0,36 -23,0 0,-36z"
     id="path1389" />
  <path
     style="fill:none;stroke:#000;stroke-width:2"
     d="M772,167 l23,0 0,209 -23,0 0,-209"
     id="path1391" />
  <g
     id="HA_ANI"
     inkscape:label="HA_ANI">
    <path
       style="fill:#b2b2b2;stroke:#000;stroke-width:2"
       d="M167,284 l406,0 0,23 -406,0 0,-23z"
       id="path1301" />
    <path
       style="fill:#b2b2b2;stroke:#000;stroke-width:2"
       d="M167,329 l406,0 0,25 -406,0 0,-25z"
       id="path1303" />
    <path
       style="fill:#ccc;stroke:#000;stroke-width:2"
       d="M167,190 l406,0 0,24 -406,0 0,-24z"
       id="path1305" />
    <path
       style="fill:#ccc;stroke:#000;stroke-width:2"
       d="M167,237 l406,0 0,23 -406,0 0,-23z"
       id="path1307" />
    <path
       style="fill:#e5e5e5;stroke:#000;stroke-width:2"
       d="M167,143 l406,0 0,24 -406,0 0,-24z"
       id="path1309" />
    <path
       style="fill:#e5e5e5;stroke:#000;stroke-width:2"
       d="M167,120 l406,0 0,11 -406,0 0,-11z"
       id="path1311" />
    <path
       style="fill:#666;stroke:#000;stroke-width:2"
       d="M190,248 l186,0 0,176 -186,0 0,-176z"
       id="path1313" />
    <path
       style="fill:none;stroke:#fff;stroke-width:2"
       d="M214,401 l0,-128 129,0"
       id="path1315" />
    <path
       style="fill:#4c4c4c;stroke:#000;stroke-width:2"
       d="M376,248 l12,0 0,164 -12,0 0,-164z"
       id="path1321" />
    <path
       style="fill:#b2b2b2"
       d="M748,256 l-70,0 0,32 70,0 0,-32z"
       id="path1323" />
    <path
       style="fill:#7f7f7f"
       d="M748,322 l-70,0 0,32 70,0 0,-32z"
       id="path1325" />
    <path
       style="fill:#ccc"
       d="M748,190 l-70,0 0,32 70,0 0,-32z"
       id="path1327" />
    <circle
       style="fill:#4c7f7f;stroke:#000;stroke-width:2"
       cx="294"
       cy="330"
       r="34"
       id="circle1393" />
  </g>
</svg>
