<?xml version="1.0" encoding="UTF-8" standalone="no"?>
<svg
   xmlns:dc="http://purl.org/dc/elements/1.1/"
   xmlns:cc="http://creativecommons.org/ns#"
   xmlns:rdf="http://www.w3.org/1999/02/22-rdf-syntax-ns#"
   xmlns:svg="http://www.w3.org/2000/svg"
   xmlns="http://www.w3.org/2000/svg"
   xmlns:sodipodi="http://sodipodi.sourceforge.net/DTD/sodipodi-0.dtd"
   xmlns:inkscape="http://www.inkscape.org/namespaces/inkscape"
   width="1.3578in"
   height="1.4792in"
   viewBox="0 0 481 524"
   version="1.1"
   id="svg910"
   sodipodi:docname="3-D Valve with actuator.svg"
   inkscape:version="1.0.2-2 (e86c870879, 2021-01-15)">
  <metadata
     id="metadata916">
    <rdf:RDF>
      <cc:Work
         rdf:about="">
        <dc:format>image/svg+xml</dc:format>
        <dc:type
           rdf:resource="http://purl.org/dc/dcmitype/StillImage" />
      </cc:Work>
    </rdf:RDF>
  </metadata>
  <defs
     id="defs914" />
  <sodipodi:namedview
     pagecolor="#ffffff"
     bordercolor="#666666"
     borderopacity="1"
     objecttolerance="10"
     gridtolerance="10"
     guidetolerance="10"
     inkscape:pageopacity="0"
     inkscape:pageshadow="2"
     inkscape:window-width="1920"
     inkscape:window-height="1017"
     id="namedview912"
     showgrid="false"
     inkscape:zoom="4.5416605"
     inkscape:cx="65.1744"
     inkscape:cy="71.0016"
     inkscape:window-x="-8"
     inkscape:window-y="-8"
     inkscape:window-maximized="1"
     inkscape:current-layer="svg910" />
  <path
     style="fill:#000;stroke:#000;stroke-width:2"
     d="M69,29 l375,0 0,144 -375,0 0,-144z"
     id="path880" />
  <path
     style="fill:#7f7f7f"
     d="M256,157 l0,244 -33,0 0,-244 33,0z"
     id="path882" />
  <path
     style="fill:#b2b2b2"
     d="M253,157 l0,244 -27,0 0,-244 27,0z"
     id="path884" />
  <path
     style="fill:#e5e5e5"
     d="M249,157 l0,244 -18,0 0,-244 18,0z"
     id="path886" />
  <path
     style="fill:#fff"
     d="M243,157 l0,244 -6,0 0,-244 6,0z"
     id="path888" />
  <path
     style="fill:none;stroke:#000;stroke-width:2"
     d="M223,157 l0,244"
     id="path890" />
  <path
     style="fill:none;stroke:#000;stroke-width:2"
     d="M256,401 l0,-244"
     id="path892" />
  <path
     style="fill:#7f7f7f"
     d="M14,510 l0,-229 453,229 0,-229 -453,229z"
     id="path894" />
  <path
     style="fill:#999"
     d="M14,498 l0,-205 453,205 0,-205 -453,205z"
     id="path896" />
  <path
     style="fill:#b2b2b2"
     d="M14,474 l0,-158 453,158 0,-158 -453,158z"
     id="path898" />
  <path
     style="fill:#ccc"
     d="M14,451 l0,-112 453,112 0,-112 -453,112z"
     id="path900" />
  <path
     style="fill:#e5e5e5"
     d="M14,433 l0,-76 453,76 0,-76 -453,76z"
     id="path902" />
  <path
     style="fill:#fff"
     d="M14,410 l0,-29 453,29 0,-29 -453,29z"
     id="path904" />
  <path
     style="fill:none;stroke:#000;stroke-width:2"
     d="M14,510 l0,-229 453,229 0,-229 -453,229"
     id="path906" />
  <path
     style="fill:#7f7f7f;stroke:#000;stroke-width:2"
     d="M53,14 l374,0 0,144 -374,0 0,-144z"
     id="HA_ANI"
     inkscape:label="HA_ANI" />
</svg>
