<?xml version="1.0" encoding="UTF-8" standalone="no"?>
<svg
   xmlns:dc="http://purl.org/dc/elements/1.1/"
   xmlns:cc="http://creativecommons.org/ns#"
   xmlns:rdf="http://www.w3.org/1999/02/22-rdf-syntax-ns#"
   xmlns:svg="http://www.w3.org/2000/svg"
   xmlns="http://www.w3.org/2000/svg"
   xmlns:sodipodi="http://sodipodi.sourceforge.net/DTD/sodipodi-0.dtd"
   xmlns:inkscape="http://www.inkscape.org/namespaces/inkscape"
   width="1.4792in"
   height="1.4792in"
   viewBox="0 0 530 530"
   version="1.1"
   id="svg878"
   sodipodi:docname="Pipe_Reducer_1.svg"
   inkscape:version="1.0.2-2 (e86c870879, 2021-01-15)">
  <metadata
     id="metadata884">
    <rdf:RDF>
      <cc:Work
         rdf:about="">
        <dc:format>image/svg+xml</dc:format>
        <dc:type
           rdf:resource="http://purl.org/dc/dcmitype/StillImage" />
      </cc:Work>
    </rdf:RDF>
  </metadata>
  <defs
     id="defs882" />
  <sodipodi:namedview
     pagecolor="#ffffff"
     bordercolor="#666666"
     borderopacity="1"
     objecttolerance="10"
     gridtolerance="10"
     guidetolerance="10"
     inkscape:pageopacity="0"
     inkscape:pageshadow="2"
     inkscape:window-width="1920"
     inkscape:window-height="1017"
     id="namedview880"
     showgrid="false"
     inkscape:zoom="4.1689201"
     inkscape:cx="71.0016"
     inkscape:cy="71.0016"
     inkscape:window-x="-8"
     inkscape:window-y="-8"
     inkscape:window-maximized="1"
     inkscape:current-layer="svg878" />
  <g
     id="HA_ANI"
     inkscape:label="HA_ANI">
    <path
       style="fill:#7f7f7f"
       d="M15,515 l0,-500 500,94 0,312 -500,94z"
       id="path864" />
    <path
       style="fill:#999"
       d="M15,476 l0,-422 500,79 0,264 -500,79z"
       id="path866" />
    <path
       style="fill:#b2b2b2"
       d="M15,429 l0,-328 500,61 0,206 -500,61z"
       id="path868" />
    <path
       style="fill:#ccc"
       d="M15,367 l0,-204 500,38 0,128 -500,38z"
       id="path870" />
    <path
       style="fill:#e5e5e5"
       d="M15,312 l0,-94 500,18 0,58 -500,18z"
       id="path872" />
    <path
       style="fill:#fff"
       d="M15,273 l0,-16 500,3 0,10 -500,3z"
       id="path874" />
    <path
       style="fill:none;stroke:#000;stroke-width:2"
       d="M15,515 l0,-500 500,94 0,312 -500,94"
       id="path876" />
  </g>
</svg>
