<?xml version="1.0" encoding="UTF-8" standalone="no"?>
<svg
   xmlns:dc="http://purl.org/dc/elements/1.1/"
   xmlns:cc="http://creativecommons.org/ns#"
   xmlns:rdf="http://www.w3.org/1999/02/22-rdf-syntax-ns#"
   xmlns:svg="http://www.w3.org/2000/svg"
   xmlns="http://www.w3.org/2000/svg"
   xmlns:sodipodi="http://sodipodi.sourceforge.net/DTD/sodipodi-0.dtd"
   xmlns:inkscape="http://www.inkscape.org/namespaces/inkscape"
   width="1.4792in"
   height="1.4792in"
   viewBox="0 0 530 530"
   version="1.1"
   id="svg886"
   sodipodi:docname="Pipe_Tee.svg"
   inkscape:version="1.0.2-2 (e86c870879, 2021-01-15)">
  <metadata
     id="metadata892">
    <rdf:RDF>
      <cc:Work
         rdf:about="">
        <dc:format>image/svg+xml</dc:format>
        <dc:type
           rdf:resource="http://purl.org/dc/dcmitype/StillImage" />
      </cc:Work>
    </rdf:RDF>
  </metadata>
  <defs
     id="defs890" />
  <sodipodi:namedview
     pagecolor="#ffffff"
     bordercolor="#666666"
     borderopacity="1"
     objecttolerance="10"
     gridtolerance="10"
     guidetolerance="10"
     inkscape:pageopacity="0"
     inkscape:pageshadow="2"
     inkscape:window-width="1920"
     inkscape:window-height="1017"
     id="namedview888"
     showgrid="false"
     inkscape:zoom="4.1689201"
     inkscape:cx="71.0016"
     inkscape:cy="71.0016"
     inkscape:window-x="-8"
     inkscape:window-y="-8"
     inkscape:window-maximized="1"
     inkscape:current-layer="svg886" />
  <g
     id="HA_ANI"
     inkscape:label="HA_ANI">
    <path
       style="fill:#7f7f7f"
       d="M390,515 l0,-250 125,0 0,-250 -500,0 0,250 125,0 0,250 250,0z"
       id="path868" />
    <path
       style="fill:#999"
       d="M375,515 l0,-266 140,0 0,-218 -500,0 0,218 141,0 0,266 219,0z"
       id="path870" />
    <path
       style="fill:#b2b2b2"
       d="M349,515 l0,-292 166,0 0,-166 -500,0 0,166 167,0 0,292 167,0z"
       id="path872" />
    <path
       style="fill:#ccc"
       d="M323,515 l0,-318 192,0 0,-114 -500,0 0,114 193,0 0,318 115,0z"
       id="path874" />
    <path
       style="fill:#e5e5e5"
       d="M302,515 l0,-338 213,0 0,-73 -500,0 0,73 209,0 0,338 78,0z"
       id="path876" />
    <path
       style="fill:#fff"
       d="M281,515 l0,-359 234,0 0,-32 -500,0 0,32 235,0 0,359 31,0z"
       id="path878" />
    <path
       style="fill:none;stroke:#000;stroke-width:2"
       d="M390,515 l0,-250 125,0"
       id="path880" />
    <path
       style="fill:none;stroke:#000;stroke-width:2"
       d="M140,515 l0,-250 -125,0"
       id="path882" />
    <path
       style="fill:none;stroke:#000;stroke-width:2"
       d="M15,15 l500,0"
       id="path884" />
  </g>
</svg>
