<?xml version="1.0" encoding="UTF-8" standalone="no"?>
<svg
   xmlns:dc="http://purl.org/dc/elements/1.1/"
   xmlns:cc="http://creativecommons.org/ns#"
   xmlns:rdf="http://www.w3.org/1999/02/22-rdf-syntax-ns#"
   xmlns:svg="http://www.w3.org/2000/svg"
   xmlns="http://www.w3.org/2000/svg"
   xmlns:sodipodi="http://sodipodi.sourceforge.net/DTD/sodipodi-0.dtd"
   xmlns:inkscape="http://www.inkscape.org/namespaces/inkscape"
   width="0.5470in"
   height="1.4792in"
   viewBox="0 0 196 530"
   version="1.1"
   id="svg19634"
   sodipodi:docname="Pipe_Flange.svg"
   inkscape:version="1.0.2-2 (e86c870879, 2021-01-15)">
  <metadata
     id="metadata19640">
    <rdf:RDF>
      <cc:Work
         rdf:about="">
        <dc:format>image/svg+xml</dc:format>
        <dc:type
           rdf:resource="http://purl.org/dc/dcmitype/StillImage" />
      </cc:Work>
    </rdf:RDF>
  </metadata>
  <defs
     id="defs19638" />
  <sodipodi:namedview
     pagecolor="#ffffff"
     bordercolor="#666666"
     borderopacity="1"
     objecttolerance="10"
     gridtolerance="10"
     guidetolerance="10"
     inkscape:pageopacity="0"
     inkscape:pageshadow="2"
     inkscape:window-width="1920"
     inkscape:window-height="1017"
     id="namedview19636"
     showgrid="false"
     inkscape:zoom="4.232586"
     inkscape:cx="9.5901538"
     inkscape:cy="78.682755"
     inkscape:window-x="-8"
     inkscape:window-y="-8"
     inkscape:window-maximized="1"
     inkscape:current-layer="svg19634" />
  <path
     style="fill:#7f7f7f;stroke:#000;stroke-width:2"
     d="M56,119 l-41,-10 0,-63 41,-10 0,83z"
     id="path19602" />
  <path
     style="fill:#7f7f7f;stroke:#000;stroke-width:2"
     d="M56,307 l-41,-10 0,-63 41,-10 0,83z"
     id="path19604" />
  <path
     style="fill:#7f7f7f;stroke:#000;stroke-width:2"
     d="M56,494 l-41,-10 0,-62 41,-11 0,83z"
     id="path19606" />
  <g
     id="HA_ANI"
     inkscape:label="HA_ANI">
    <path
       style="fill:#7f7f7f"
       d="M56,15 l125,0 0,500 -125,0 0,-500z"
       id="path19608" />
    <path
       style="fill:#999"
       d="M56,46 l125,0 0,439 -125,0 0,-439z"
       id="path19610" />
    <path
       style="fill:#b2b2b2"
       d="M56,100 l125,0 0,332 -125,0 0,-332z"
       id="path19612" />
    <path
       style="fill:#ccc"
       d="M56,151 l125,0 0,229 -125,0 0,-229z"
       id="path19614" />
    <path
       style="fill:#e5e5e5"
       d="M56,191 l125,0 0,147 -125,0 0,-147z"
       id="path19616" />
    <path
       style="fill:#fff"
       d="M56,235 l125,0 0,61 -125,0 0,-61z"
       id="path19618" />
    <path
       style="fill:none;stroke:#000;stroke-width:2"
       d="M56,15 l125,0 0,500 -125,0 0,-500"
       id="path19620" />
  </g>
  <path
     style="fill:#b2b2b2;stroke:#000;stroke-width:2"
     d="M56,104 l-41,-6 0,-52 41,-10 0,68z"
     id="path19622" />
  <path
     style="fill:#b2b2b2;stroke:#000;stroke-width:2"
     d="M56,291 l-41,-5 0,-52 41,-10 0,67z"
     id="path19624" />
  <path
     style="fill:#b2b2b2;stroke:#000;stroke-width:2"
     d="M56,479 l-41,-5 0,-52 41,-11 0,68z"
     id="path19626" />
  <path
     style="fill:#e5e5e5;stroke:#000;stroke-width:2"
     d="M15,57 l0,-11 41,-10 0,16 -41,5z"
     id="path19628" />
  <path
     style="fill:#e5e5e5;stroke:#000;stroke-width:2"
     d="M15,244 l0,-10 41,-10 0,15 -41,5z"
     id="path19630" />
  <path
     style="fill:#e5e5e5;stroke:#000;stroke-width:2"
     d="M15,432 l0,-10 41,-11 0,16 -41,5z"
     id="path19632" />
</svg>
