<?xml version="1.0" encoding="UTF-8" standalone="no"?>
<svg
   xmlns:dc="http://purl.org/dc/elements/1.1/"
   xmlns:cc="http://creativecommons.org/ns#"
   xmlns:rdf="http://www.w3.org/1999/02/22-rdf-syntax-ns#"
   xmlns:svg="http://www.w3.org/2000/svg"
   xmlns="http://www.w3.org/2000/svg"
   xmlns:sodipodi="http://sodipodi.sourceforge.net/DTD/sodipodi-0.dtd"
   xmlns:inkscape="http://www.inkscape.org/namespaces/inkscape"
   width="1.4792in"
   height="1.4792in"
   viewBox="0 0 530 530"
   version="1.1"
   id="svg18325"
   sodipodi:docname="Pipe_90.svg"
   inkscape:version="1.0.2-2 (e86c870879, 2021-01-15)">
  <metadata
     id="metadata18331">
    <rdf:RDF>
      <cc:Work
         rdf:about="">
        <dc:format>image/svg+xml</dc:format>
        <dc:type
           rdf:resource="http://purl.org/dc/dcmitype/StillImage" />
      </cc:Work>
    </rdf:RDF>
  </metadata>
  <defs
     id="defs18329" />
  <sodipodi:namedview
     pagecolor="#ffffff"
     bordercolor="#666666"
     borderopacity="1"
     objecttolerance="10"
     gridtolerance="10"
     guidetolerance="10"
     inkscape:pageopacity="0"
     inkscape:pageshadow="2"
     inkscape:window-width="1920"
     inkscape:window-height="1017"
     id="namedview18327"
     showgrid="false"
     inkscape:zoom="4.232586"
     inkscape:cx="45.951349"
     inkscape:cy="68.925613"
     inkscape:window-x="-8"
     inkscape:window-y="-8"
     inkscape:window-maximized="1"
     inkscape:current-layer="svg18325" />
  <g
     id="HA_ANI"
     inkscape:label="HA_ANI">
    <path
       style="fill:#7f7f7f"
       d="M265,515 l-249,0 0,-500 249,250 0,250z"
       id="path18293" />
    <path
       style="fill:#7f7f7f"
       d="M515,265 l0,-250 -500,0 250,250 250,0z"
       id="path18295" />
    <path
       style="fill:#999"
       d="M31,515 l218,0 0,-266 -218,-218 0,484z"
       id="path18297" />
    <path
       style="fill:#999"
       d="M515,31 l0,218 -265,0 -219,-218 484,0z"
       id="path18299" />
    <path
       style="fill:#b2b2b2"
       d="M57,515 l166,0 0,-292 -166,-166 0,458z"
       id="path18301" />
    <path
       style="fill:#b2b2b2"
       d="M515,57 l0,166 -291,0 -167,-166 458,0z"
       id="path18303" />
    <path
       style="fill:#ccc"
       d="M83,515 l114,0 0,-318 -114,-114 0,432z"
       id="path18305" />
    <path
       style="fill:#ccc"
       d="M515,83 l0,114 -317,0 -115,-114 432,0z"
       id="path18307" />
    <path
       style="fill:#e5e5e5"
       d="M104,515 l73,0 0,-339 -73,-73 0,412z"
       id="path18309" />
    <path
       style="fill:#e5e5e5"
       d="M515,103 l0,73 -338,0 -73,-73 411,0z"
       id="path18311" />
    <path
       style="fill:#fff"
       d="M125,515 l31,0 0,-359 -31,-32 0,391z"
       id="path18313" />
    <path
       style="fill:#fff"
       d="M515,124 l0,32 -359,0 -31,-32 390,0z"
       id="path18315" />
    <path
       style="fill:none;stroke:#000;stroke-width:2"
       d="M515,15 l-500,0"
       id="path18317" />
    <path
       style="fill:none;stroke:#000;stroke-width:2"
       d="M265,265 l250,0"
       id="path18319" />
    <path
       style="fill:none;stroke:#000;stroke-width:2"
       d="M15,515 l0,-500"
       id="path18321" />
    <path
       style="fill:none;stroke:#000;stroke-width:2"
       d="M265,265 l0,250"
       id="path18323" />
  </g>
</svg>
