<?xml version="1.0" encoding="UTF-8" standalone="no"?>
<svg
   xmlns:dc="http://purl.org/dc/elements/1.1/"
   xmlns:cc="http://creativecommons.org/ns#"
   xmlns:rdf="http://www.w3.org/1999/02/22-rdf-syntax-ns#"
   xmlns:svg="http://www.w3.org/2000/svg"
   xmlns="http://www.w3.org/2000/svg"
   xmlns:sodipodi="http://sodipodi.sourceforge.net/DTD/sodipodi-0.dtd"
   xmlns:inkscape="http://www.inkscape.org/namespaces/inkscape"
   width="1.4792in"
   height="1.4792in"
   viewBox="0 0 530 530"
   version="1.1"
   id="svg20269"
   sodipodi:docname="Pipe_Intersection.svg"
   inkscape:version="1.0.2-2 (e86c870879, 2021-01-15)">
  <metadata
     id="metadata20275">
    <rdf:RDF>
      <cc:Work
         rdf:about="">
        <dc:format>image/svg+xml</dc:format>
        <dc:type
           rdf:resource="http://purl.org/dc/dcmitype/StillImage" />
      </cc:Work>
    </rdf:RDF>
  </metadata>
  <defs
     id="defs20273" />
  <sodipodi:namedview
     pagecolor="#ffffff"
     bordercolor="#666666"
     borderopacity="1"
     objecttolerance="10"
     gridtolerance="10"
     guidetolerance="10"
     inkscape:pageopacity="0"
     inkscape:pageshadow="2"
     inkscape:window-width="1920"
     inkscape:window-height="1017"
     id="namedview20271"
     showgrid="false"
     inkscape:zoom="4.232586"
     inkscape:cx="42.975766"
     inkscape:cy="68.372016"
     inkscape:window-x="-8"
     inkscape:window-y="-8"
     inkscape:window-maximized="1"
     inkscape:current-layer="svg20269" />
  <g
     id="HA_ANI"
     inkscape:label="HA_ANI">
    <path
       style="fill:#7f7f7f"
       d="M15,140 l125,0 0,-125 250,0 0,125 125,0 0,250 -125,0 0,125 -250,0 0,-125 -125,0 0,-250z"
       id="path20249" />
    <path
       style="fill:#999"
       d="M15,156 l141,0 0,-141 219,0 0,141 140,0 0,218 -140,0 0,141 -219,0 0,-141 -141,0 0,-218z"
       id="path20251" />
    <path
       style="fill:#b2b2b2"
       d="M15,182 l167,0 0,-167 167,0 0,167 166,0 0,166 -166,0 0,167 -167,0 0,-167 -167,0 0,-166z"
       id="path20253" />
    <path
       style="fill:#ccc"
       d="M15,208 l193,0 0,-193 115,0 0,193 192,0 0,114 -192,0 0,193 -115,0 0,-193 -193,0 0,-114z"
       id="path20255" />
    <path
       style="fill:#e5e5e5"
       d="M15,229 l214,0 0,-214 73,0 0,214 213,0 0,73 -213,0 0,213 -73,0 0,-213 -214,0 0,-73z"
       id="path20257" />
    <path
       style="fill:#fff"
       d="M15,249 l235,0 0,-234 31,0 0,234 234,0 0,32 -234,0 0,234 -31,0 0,-234 -235,0 0,-32z"
       id="path20259" />
    <path
       style="fill:none;stroke:#000;stroke-width:2"
       d="M15,140 l125,0 0,-125"
       id="path20261" />
    <path
       style="fill:none;stroke:#000;stroke-width:2"
       d="M390,15 l0,125 125,0"
       id="path20263" />
    <path
       style="fill:none;stroke:#000;stroke-width:2"
       d="M515,390 l-125,0 0,125"
       id="path20265" />
    <path
       style="fill:none;stroke:#000;stroke-width:2"
       d="M140,515 l0,-125 -125,0"
       id="path20267" />
  </g>
</svg>
