<?xml version="1.0" encoding="UTF-8" standalone="no"?>
<svg
   xmlns:dc="http://purl.org/dc/elements/1.1/"
   xmlns:cc="http://creativecommons.org/ns#"
   xmlns:rdf="http://www.w3.org/1999/02/22-rdf-syntax-ns#"
   xmlns:svg="http://www.w3.org/2000/svg"
   xmlns="http://www.w3.org/2000/svg"
   xmlns:sodipodi="http://sodipodi.sourceforge.net/DTD/sodipodi-0.dtd"
   xmlns:inkscape="http://www.inkscape.org/namespaces/inkscape"
   width="4.8096in"
   height="1.4792in"
   viewBox="0 0 530 163"
   version="1.1"
   id="svg17665"
   sodipodi:docname="Pipe.svg"
   inkscape:version="1.0.2-2 (e86c870879, 2021-01-15)">
  <metadata
     id="metadata17671">
    <rdf:RDF>
      <cc:Work
         rdf:about="">
        <dc:format>image/svg+xml</dc:format>
        <dc:type
           rdf:resource="http://purl.org/dc/dcmitype/StillImage" />
      </cc:Work>
    </rdf:RDF>
  </metadata>
  <defs
     id="defs17669" />
  <sodipodi:namedview
     pagecolor="#ffffff"
     bordercolor="#666666"
     borderopacity="1"
     objecttolerance="10"
     gridtolerance="10"
     guidetolerance="10"
     inkscape:pageopacity="0"
     inkscape:pageshadow="2"
     inkscape:window-width="1920"
     inkscape:window-height="1017"
     id="namedview17667"
     showgrid="false"
     inkscape:zoom="2.2567712"
     inkscape:cx="268.61236"
     inkscape:cy="53.410927"
     inkscape:window-x="-8"
     inkscape:window-y="-8"
     inkscape:window-maximized="1"
     inkscape:current-layer="svg17665" />
  <g
     id="HA_ANI"
     inkscape:label="HA_ANI">
    <path
       style="fill:#7f7f7f"
       d="M15,15 l500,0 0,133 -500,0 0,-133z"
       id="path17649" />
    <path
       style="fill:#999"
       d="M15,24 l500,0 0,116 -500,0 0,-116z"
       id="path17651" />
    <path
       style="fill:#b2b2b2"
       d="M15,38 l500,0 0,88 -500,0 0,-88z"
       id="path17653" />
    <path
       style="fill:#ccc"
       d="M15,51 l500,0 0,61 -500,0 0,-61z"
       id="path17655" />
    <path
       style="fill:#e5e5e5"
       d="M15,62 l500,0 0,39 -500,0 0,-39z"
       id="path17657" />
    <path
       style="fill:#fff"
       d="M15,74 l500,0 0,16 -500,0 0,-16z"
       id="path17659" />
    <path
       style="fill:none;stroke:#000;stroke-width:2"
       d="M15,148 l500,0"
       id="path17661" />
    <path
       style="fill:none;stroke:#000;stroke-width:2"
       d="M515,15 l-500,0"
       id="path17663" />
  </g>
</svg>
