<?xml version="1.0" encoding="UTF-8" standalone="no"?>
<svg
   xmlns:dc="http://purl.org/dc/elements/1.1/"
   xmlns:cc="http://creativecommons.org/ns#"
   xmlns:rdf="http://www.w3.org/1999/02/22-rdf-syntax-ns#"
   xmlns:svg="http://www.w3.org/2000/svg"
   xmlns="http://www.w3.org/2000/svg"
   xmlns:sodipodi="http://sodipodi.sourceforge.net/DTD/sodipodi-0.dtd"
   xmlns:inkscape="http://www.inkscape.org/namespaces/inkscape"
   width="1.4792in"
   height="1.4792in"
   viewBox="0 0 530 530"
   version="1.1"
   id="svg18961"
   sodipodi:docname="Pipe_90C.svg"
   inkscape:version="1.0.2-2 (e86c870879, 2021-01-15)">
  <metadata
     id="metadata18967">
    <rdf:RDF>
      <cc:Work
         rdf:about="">
        <dc:format>image/svg+xml</dc:format>
        <dc:type
           rdf:resource="http://purl.org/dc/dcmitype/StillImage" />
      </cc:Work>
    </rdf:RDF>
  </metadata>
  <defs
     id="defs18965" />
  <sodipodi:namedview
     pagecolor="#ffffff"
     bordercolor="#666666"
     borderopacity="1"
     objecttolerance="10"
     gridtolerance="10"
     guidetolerance="10"
     inkscape:pageopacity="0"
     inkscape:pageshadow="2"
     inkscape:window-width="1920"
     inkscape:window-height="1017"
     id="namedview18963"
     showgrid="false"
     inkscape:zoom="2.9928903"
     inkscape:cx="42.867983"
     inkscape:cy="54.024365"
     inkscape:window-x="-8"
     inkscape:window-y="-8"
     inkscape:window-maximized="1"
     inkscape:current-layer="svg18961" />
  <g
     id="HA_ANI"
     inkscape:label="HA_ANI">
    <path
       style="fill:#7f7f7f"
       d="M15,307 l0,208 250,0 0,-208 3,-16 9,-14 14,-9 16,-3 208,0 0,-250 -208,0 -30,2 -29,4 -28,7 -27,10 -25,12 -24,15 -23,17 -20,19 -19,20 -17,23 -15,24 -12,25 -10,27 -7,28 -4,29 -2,30z"
       id="path18945" />
    <path
       style="fill:#999"
       d="M307,31 l-28,1 -27,5 -27,6 -25,10 -24,11 -23,14 -21,16 -20,18 -18,19 -16,21 -14,23 -11,24 -10,26 -6,26 -5,28 -1,28 0,208 219,0 0,-208 4,-23 13,-18 18,-12 22,-5 208,0 0,-218 -208,0z"
       id="path18947" />
    <path
       style="fill:#b2b2b2"
       d="M307,57 l208,0 0,166 -208,0 -17,2 -15,5 -14,7 -13,11 -10,12 -7,14 -5,16 -2,17 0,208 -167,0 0,-208 1,-26 4,-24 6,-24 9,-23 10,-22 13,-21 14,-19 16,-18 18,-16 19,-14 21,-13 22,-10 23,-9 24,-6 24,-4 26,-1z"
       id="path18949" />
    <path
       style="fill:#ccc"
       d="M307,83 l-23,1 -22,4 -22,5 -20,8 -20,9 -18,11 -18,13 -15,14 -15,16 -13,18 -11,18 -9,20 -8,20 -5,22 -4,22 -1,23 0,208 115,0 0,-208 2,-22 7,-21 10,-19 13,-16 16,-13 19,-10 20,-7 22,-2 208,0 0,-114 -208,0z"
       id="path18951" />
    <path
       style="fill:#e5e5e5"
       d="M307,104 l208,0 0,73 -208,0 -26,3 -25,7 -22,12 -19,16 -16,19 -12,22 -7,25 -3,26 0,208 -73,0 0,-208 1,-21 3,-20 5,-19 7,-19 9,-18 10,-16 11,-16 14,-15 14,-13 16,-11 16,-10 18,-9 19,-7 19,-5 20,-3 21,-1z"
       id="path18953" />
    <path
       style="fill:#fff"
       d="M307,124 l-19,1 -18,3 -17,4 -17,6 -16,8 -15,9 -14,11 -13,12 -12,13 -10,14 -9,15 -8,16 -6,17 -4,17 -3,18 -1,19 0,208 31,0 0,-208 3,-31 9,-28 14,-26 18,-22 23,-18 25,-14 29,-9 30,-3 208,0 0,-32 -208,0z"
       id="path18955" />
    <path
       style="fill:none;stroke:#000;stroke-width:2"
       d="M515,15 l-208,0 -30,2 -29,4 -28,7 -27,10 -25,12 -24,15 -23,17 -20,19 -19,20 -17,23 -15,24 -12,25 -10,27 -7,28 -4,29 -2,30 0,208"
       id="path18957" />
    <path
       style="fill:none;stroke:#000;stroke-width:2"
       d="M265,515 l0,-208 1,-8 2,-8 4,-7 5,-7 7,-5 7,-4 8,-2 8,-1 208,0"
       id="path18959" />
  </g>
</svg>
