<?xml version="1.0" encoding="UTF-8" standalone="no"?>
<svg
   xmlns:dc="http://purl.org/dc/elements/1.1/"
   xmlns:cc="http://creativecommons.org/ns#"
   xmlns:rdf="http://www.w3.org/1999/02/22-rdf-syntax-ns#"
   xmlns:svg="http://www.w3.org/2000/svg"
   xmlns="http://www.w3.org/2000/svg"
   xmlns:sodipodi="http://sodipodi.sourceforge.net/DTD/sodipodi-0.dtd"
   xmlns:inkscape="http://www.inkscape.org/namespaces/inkscape"
   width="1.8198in"
   height="1.4792in"
   viewBox="0 0 999 812"
   version="1.1"
   id="svg8260"
   sodipodi:docname="AHU_2.svg"
   inkscape:version="1.0.2-2 (e86c870879, 2021-01-15)">
  <metadata
     id="metadata8266">
    <rdf:RDF>
      <cc:Work
         rdf:about="">
        <dc:format>image/svg+xml</dc:format>
        <dc:type
           rdf:resource="http://purl.org/dc/dcmitype/StillImage" />
      </cc:Work>
    </rdf:RDF>
  </metadata>
  <defs
     id="defs8264" />
  <sodipodi:namedview
     pagecolor="#ffffff"
     bordercolor="#666666"
     borderopacity="1"
     objecttolerance="10"
     gridtolerance="10"
     guidetolerance="10"
     inkscape:pageopacity="0"
     inkscape:pageshadow="2"
     inkscape:window-width="1920"
     inkscape:window-height="1017"
     id="namedview8262"
     showgrid="false"
     inkscape:zoom="5.9644832"
     inkscape:cx="87.350401"
     inkscape:cy="71.0016"
     inkscape:window-x="-8"
     inkscape:window-y="-8"
     inkscape:window-maximized="1"
     inkscape:current-layer="svg8260"
     inkscape:document-rotation="0" />
  <g
     id="g11147"
     inkscape:label="HA_ANI">
    <path
       style="fill:#336;stroke:#000;stroke-width:2"
       d="M578,28 l274,0 0,19 -274,0 0,-19z"
       id="path8184" />
    <path
       style="fill:#336;stroke:#000;stroke-width:2"
       d="M145,28 l275,0 0,19 -275,0 0,-19z"
       id="path8186" />
    <path
       style="fill:#47477a"
       d="M597,28 l238,0 0,19 -238,0 0,-19z"
       id="path8188" />
    <path
       style="fill:#47477a"
       d="M165,28 l236,0 0,19 -236,0 0,-19z"
       id="path8190" />
    <path
       style="fill:#5e5e91"
       d="M616,28 l198,0 0,19 -198,0 0,-19z"
       id="path8192" />
    <path
       style="fill:#5e5e91"
       d="M184,28 l198,0 0,19 -198,0 0,-19z"
       id="path8194" />
    <path
       style="fill:#7373a6"
       d="M635,28 l160,0 0,19 -160,0 0,-19z"
       id="path8196" />
    <path
       style="fill:#7373a6"
       d="M203,28 l160,0 0,19 -160,0 0,-19z"
       id="path8198" />
    <path
       style="fill:#8787ba"
       d="M654,28 l122,0 0,19 -122,0 0,-19z"
       id="path8200" />
    <path
       style="fill:#8787ba"
       d="M222,28 l123,0 0,19 -123,0 0,-19z"
       id="path8202" />
    <path
       style="fill:#9e9ed1"
       d="M673,28 l84,0 0,19 -84,0 0,-19z"
       id="path8204" />
    <path
       style="fill:#9e9ed1"
       d="M241,28 l85,0 0,19 -85,0 0,-19z"
       id="path8206" />
    <path
       style="fill:#b2b2e5"
       d="M691,28 l48,0 0,19 -48,0 0,-19z"
       id="path8208" />
    <path
       style="fill:#b2b2e5"
       d="M260,28 l47,0 0,19 -47,0 0,-19z"
       id="path8210" />
    <path
       style="fill:#336;stroke:#000;stroke-width:2"
       d="M58,273 l-11,-177 904,0 -11,177 -882,0z"
       id="path8212" />
  </g>
  <path
     style="fill:none;stroke:#999;stroke-width:2"
     d="M107,273 l-11,-177"
     id="path8214" />
  <path
     style="fill:none;stroke:#999;stroke-width:2"
     d="M891,273 l10,-177"
     id="path8216" />
  <path
     style="fill:none;stroke:#999;stroke-width:2"
     d="M499,273 l0,-177"
     id="path8218" />
  <path
     style="fill:none;stroke:#999;stroke-width:2"
     d="M245,273 l-12,-177"
     id="path8220" />
  <path
     style="fill:none;stroke:#999;stroke-width:2"
     d="M754,273 l11,-177"
     id="path8222" />
  <path
     style="fill:none;stroke:#999;stroke-width:2"
     d="M627,273 l0,-177"
     id="path8224" />
  <path
     style="fill:none;stroke:#999;stroke-width:2"
     d="M371,273 l0,-177"
     id="path8226" />
  <path
     style="fill:#b2b2e5"
     d="M28,273 l942,0 0,511 -942,0 0,-511z"
     id="path8228" />
  <path
     style="fill:#adade0"
     d="M28,635 l942,-213 0,362 -942,0 0,-149z"
     id="path8230" />
  <path
     style="fill:#a8a8db"
     d="M28,658 l942,-214 0,340 -942,0 0,-126z"
     id="path8232" />
  <path
     style="fill:#a3a3d6"
     d="M28,690 l942,-215 0,309 -942,0 0,-94z"
     id="path8234" />
  <path
     style="fill:none;stroke:#000;stroke-width:2"
     d="M28,273 l942,0 0,511 -942,0 0,-511"
     id="path8236" />
  <path
     style="fill:#336"
     d="M441,637 l58,0 0,9 -58,0 0,-9z"
     id="path8238" />
  <path
     style="fill:#336"
     d="M441,450 l58,0 0,9 -58,0 0,-9z"
     id="path8240" />
  <path
     style="fill:#b2b2e5;stroke:#000;stroke-width:2"
     d="M28,273 l0,-226 942,0 0,226 -19,0 0,-177 -904,0 0,177 -19,0z"
     id="path8242" />
  <path
     style="fill:none;stroke:#4c4c7f;stroke-width:2"
     d="M28,292 l942,0"
     id="path8244" />
  <path
     style="fill:none;stroke:#4c4c7f;stroke-width:2"
     d="M28,744 l942,0"
     id="path8246" />
  <path
     style="fill:none;stroke:#4c4c7f;stroke-width:2"
     d="M399,292 l0,452"
     id="path8248" />
  <path
     style="fill:none;stroke:#4c4c7f;stroke-width:2"
     d="M420,292 l0,452"
     id="path8250" />
  <path
     style="fill:none;stroke:#4c4c7f;stroke-width:2"
     d="M264,292 l0,452"
     id="path8252" />
  <path
     style="fill:none;stroke:#4c4c7f;stroke-width:2"
     d="M441,744 l0,-392 294,0 0,392"
     id="HA_ANI"
     inkscape:label="HA_ANI" />
  <path
     style="fill:none;stroke:#4c4c7f;stroke-width:2"
     d="M165,548 l80,0 0,157 -80,0 0,-157"
     id="path8256" />
  <path
     style="fill:none;stroke:#4c4c7f;stroke-width:2"
     d="M28,56 l942,0"
     id="path8258" />
</svg>
