<?xml version="1.0" encoding="UTF-8" standalone="no"?>
<svg
   xmlns:dc="http://purl.org/dc/elements/1.1/"
   xmlns:cc="http://creativecommons.org/ns#"
   xmlns:rdf="http://www.w3.org/1999/02/22-rdf-syntax-ns#"
   xmlns:svg="http://www.w3.org/2000/svg"
   xmlns="http://www.w3.org/2000/svg"
   xmlns:sodipodi="http://sodipodi.sourceforge.net/DTD/sodipodi-0.dtd"
   xmlns:inkscape="http://www.inkscape.org/namespaces/inkscape"
   width="3.1575in"
   height="1.4792in"
   viewBox="0 0 999 468"
   version="1.1"
   id="svg7522"
   sodipodi:docname="Air handling unit 1.svg"
   inkscape:version="1.0.2-2 (e86c870879, 2021-01-15)">
  <metadata
     id="metadata7528">
    <rdf:RDF>
      <cc:Work
         rdf:about="">
        <dc:format>image/svg+xml</dc:format>
        <dc:type
           rdf:resource="http://purl.org/dc/dcmitype/StillImage" />
      </cc:Work>
    </rdf:RDF>
  </metadata>
  <defs
     id="defs7526" />
  <sodipodi:namedview
     pagecolor="#ffffff"
     bordercolor="#666666"
     borderopacity="1"
     objecttolerance="10"
     gridtolerance="10"
     guidetolerance="10"
     inkscape:pageopacity="0"
     inkscape:pageshadow="2"
     inkscape:window-width="1920"
     inkscape:window-height="1017"
     id="namedview7524"
     showgrid="false"
     inkscape:zoom="3.4375824"
     inkscape:cx="151.56"
     inkscape:cy="71.0016"
     inkscape:window-x="-8"
     inkscape:window-y="-8"
     inkscape:window-maximized="1"
     inkscape:current-layer="svg7522" />
  <path
     style="fill:#999;stroke:#000;stroke-width:2"
     d="M28,76 l706,0 0,364 -706,0 0,-364z"
     id="path7462" />
  <path
     style="fill:#666;stroke:#000;stroke-width:2"
     d="M734,76 l0,-13 70,-35 0,12 -70,36z"
     id="path7464" />
  <path
     style="fill:#ccc;stroke:#000;stroke-width:2"
     d="M804,28 l-70,35 -706,0 70,-35 706,0z"
     id="HA_ANI"
     inkscape:label="HA_ANI" />
  <path
     style="fill:#7f7f7f;stroke:#000;stroke-width:2"
     d="M689,392 l0,-70 10,-5 0,70 -10,5z"
     id="path7468" />
  <path
     style="fill:#7f7f7f;stroke:#000;stroke-width:2"
     d="M734,440 l70,-35 0,-365 -70,36 0,364z"
     id="path7470" />
  <path
     style="fill:#7f7f7f;stroke:#000;stroke-width:2"
     d="M28,63 l706,0 0,13 -706,0 0,-13z"
     id="path7472" />
  <path
     style="fill:#666"
     d="M623,427 l0,-341 5,0 0,341 -5,0z"
     id="path7474" />
  <path
     style="fill:#666"
     d="M523,427 l0,-341 5,0 0,341 -5,0z"
     id="path7476" />
  <path
     style="fill:#666"
     d="M151,342 l362,0 0,8 -362,0 0,-8z"
     id="path7478" />
  <path
     style="fill:#666"
     d="M266,163 l0,-77 6,0 0,77 -6,0z"
     id="path7480" />
  <path
     style="fill:#666"
     d="M151,163 l362,0 0,6 -362,0 0,-6z"
     id="path7482" />
  <path
     style="fill:#666"
     d="M40,427 l0,-341 5,0 0,341 -5,0z"
     id="path7484" />
  <path
     style="fill:#666"
     d="M141,427 l0,-341 5,0 0,341 -5,0z"
     id="path7486" />
  <path
     style="fill:#999;stroke:#000;stroke-width:2"
     d="M616,322 l12,-5 71,0 -10,5 -73,0z"
     id="path7488" />
  <path
     style="fill:#b2b2b2;stroke:#000;stroke-width:2"
     d="M163,158 l23,0 0,282 -23,0 0,-282z"
     id="path7490" />
  <path
     style="fill:#e5e5e5"
     d="M168,161 l13,0 0,276 -13,0 0,-276z"
     id="path7492" />
  <circle
     style="fill:#b2b2b2;stroke:#000;stroke-width:2"
     cx="176"
     cy="145"
     r="18"
     id="circle7494" />
  <path
     style="fill:#e5e5e5"
     d="M176,133 l8,6 2,7 -3,8 -7,4 -9,-4 -4,-8 4,-9 9,-4z"
     id="path7496" />
  <path
     style="fill:#7f7f7f;stroke:#000;stroke-width:2"
     d="M664,136 l-1,0 -10,0 -7,-4 -5,-8 0,-3 3,-9 5,-4 17,-7 6,-3 10,3 6,7 1,5 -3,9 -5,4 -17,10z"
     id="path7498" />
  <path
     style="fill:#7f7f7f;stroke:#000;stroke-width:2"
     d="M224,138 l-8,3 -8,-3 -6,-7 -1,-5 3,-9 5,-4 17,-10 8,-2 8,3 6,6 1,6 -3,9 -5,3 -17,10z"
     id="path7500" />
  <path
     style="fill:#b2b2b2;stroke:#000;stroke-width:2"
     d="M616,322 l70,0 0,70 -70,0 0,-70z"
     id="path7502" />
  <path
     style="fill:#b2b2b2;stroke:#000;stroke-width:2"
     d="M656,108 l10,4 5,9 -3,9 -9,6 -3,0 -10,-4 -5,-8 0,-3 5,-9 10,-4z"
     id="path7504" />
  <circle
     style="fill:#b2b2b2;stroke:#000;stroke-width:2"
     cx="216"
     cy="126"
     r="15"
     id="circle7506" />
  <path
     style="fill:#999;stroke:#000;stroke-width:2"
     d="M747,322 l0,-236 35,0 141,118 -176,118z"
     id="path7508" />
  <path
     style="fill:#ccc;stroke:#000;stroke-width:2"
     d="M747,86 l47,-23 35,0 -47,23 -35,0z"
     id="path7510" />
  <path
     style="fill:#b2b2b2;stroke:#000;stroke-width:2"
     d="M782,86 l47,-23 141,118 -47,23 -141,-118z"
     id="path7512" />
  <path
     style="fill:#000;stroke:#000;stroke-width:2"
     d="M923,204 l47,-23 -176,118 -47,23 176,-118z"
     id="path7514" />
  <path
     style="fill:#c46300;stroke:#000;stroke-width:2"
     d="M724,382 l0,-60 5,-3 0,58 -5,5z"
     id="path7516" />
  <path
     style="fill:#ffd166;stroke:#000;stroke-width:2"
     d="M696,322 l5,-3 28,0 -5,3 -28,0z"
     id="path7518" />
  <path
     style="fill:#ff9e0f;stroke:#000;stroke-width:2"
     d="M696,322 l28,0 0,60 -28,0 0,-60z"
     id="path7520" />
</svg>
