<?xml version="1.0" encoding="UTF-8" standalone="no"?>
<svg
   xmlns:dc="http://purl.org/dc/elements/1.1/"
   xmlns:cc="http://creativecommons.org/ns#"
   xmlns:rdf="http://www.w3.org/1999/02/22-rdf-syntax-ns#"
   xmlns:svg="http://www.w3.org/2000/svg"
   xmlns="http://www.w3.org/2000/svg"
   xmlns:sodipodi="http://sodipodi.sourceforge.net/DTD/sodipodi-0.dtd"
   xmlns:inkscape="http://www.inkscape.org/namespaces/inkscape"
   width="1.5361in"
   height="1.4792in"
   viewBox="0 0 998 961"
   version="1.1"
   id="svg15108"
   sodipodi:docname="HEATER_1.svg"
   inkscape:version="1.0.2-2 (e86c870879, 2021-01-15)">
  <metadata
     id="metadata15114">
    <rdf:RDF>
      <cc:Work
         rdf:about="">
        <dc:format>image/svg+xml</dc:format>
        <dc:type
           rdf:resource="http://purl.org/dc/dcmitype/StillImage" />
      </cc:Work>
    </rdf:RDF>
  </metadata>
  <defs
     id="defs15112" />
  <sodipodi:namedview
     pagecolor="#ffffff"
     bordercolor="#666666"
     borderopacity="1"
     objecttolerance="10"
     gridtolerance="10"
     guidetolerance="10"
     inkscape:pageopacity="0"
     inkscape:pageshadow="2"
     inkscape:window-width="1920"
     inkscape:window-height="1017"
     id="namedview15110"
     showgrid="false"
     inkscape:zoom="5.9857806"
     inkscape:cx="73.732801"
     inkscape:cy="84.366607"
     inkscape:window-x="-8"
     inkscape:window-y="-8"
     inkscape:window-maximized="1"
     inkscape:current-layer="svg15108" />
  <path
     style="fill:#b2b2b2"
     d="M688,178 l0,-132 19,-18 113,0 0,113 -19,19 0,18 -113,0z"
     id="path14762" />
  <path
     style="fill:#b2b2b2"
     d="M537,178 l0,-132 19,-18 113,0 0,113 -19,19 0,18 -113,0z"
     id="path14764" />
  <path
     style="fill:#b2b2b2"
     d="M499,178 l0,-132 -19,-18 -113,0 0,113 19,19 0,18 113,0z"
     id="path14766" />
  <path
     style="fill:#b2b2b2"
     d="M348,178 l0,-132 -19,-18 -113,0 0,113 19,19 0,18 113,0z"
     id="path14768" />
  <path
     style="fill:#7f7f7f"
     d="M216,141 l19,19 94,0 0,-19 -113,0z"
     id="path14770" />
  <path
     style="fill:#7f7f7f"
     d="M367,141 l19,19 94,0 0,-19 -113,0z"
     id="path14772" />
  <path
     style="fill:#7f7f7f"
     d="M820,141 l-19,19 -94,0 0,-19 113,0z"
     id="path14774" />
  <path
     style="fill:#7f7f7f"
     d="M669,141 l-19,19 -94,0 0,-19 113,0z"
     id="path14776" />
  <path
     style="fill:#4c4c4c"
     d="M820,28 l-113,0 0,113 113,0 0,-113z"
     id="path14778" />
  <path
     style="fill:#4c4c4c"
     d="M669,28 l-113,0 0,113 113,0 0,-113z"
     id="path14780" />
  <path
     style="fill:#4c4c4c"
     d="M367,28 l113,0 0,113 -113,0 0,-113z"
     id="path14782" />
  <path
     style="fill:#4c4c4c"
     d="M216,28 l113,0 0,113 -113,0 0,-113z"
     id="path14784" />
  <path
     style="fill:none;stroke:#b2b2b2;stroke-width:2"
     d="M216,122 l113,0"
     id="path14786" />
  <path
     style="fill:none;stroke:#b2b2b2;stroke-width:2"
     d="M329,97 l-113,0"
     id="path14788" />
  <path
     style="fill:none;stroke:#b2b2b2;stroke-width:2"
     d="M329,71 l-113,0"
     id="path14790" />
  <path
     style="fill:none;stroke:#b2b2b2;stroke-width:2"
     d="M329,46 l-113,0"
     id="path14792" />
  <path
     style="fill:none;stroke:#b2b2b2;stroke-width:2"
     d="M367,122 l113,0"
     id="path14794" />
  <path
     style="fill:none;stroke:#b2b2b2;stroke-width:2"
     d="M480,97 l-113,0"
     id="path14796" />
  <path
     style="fill:none;stroke:#b2b2b2;stroke-width:2"
     d="M480,71 l-113,0"
     id="path14798" />
  <path
     style="fill:none;stroke:#b2b2b2;stroke-width:2"
     d="M480,46 l-113,0"
     id="path14800" />
  <path
     style="fill:none;stroke:#b2b2b2;stroke-width:2"
     d="M820,122 l-113,0"
     id="path14802" />
  <path
     style="fill:none;stroke:#b2b2b2;stroke-width:2"
     d="M707,97 l113,0"
     id="path14804" />
  <path
     style="fill:none;stroke:#b2b2b2;stroke-width:2"
     d="M707,71 l113,0"
     id="path14806" />
  <path
     style="fill:none;stroke:#b2b2b2;stroke-width:2"
     d="M707,46 l113,0"
     id="path14808" />
  <path
     style="fill:none;stroke:#b2b2b2;stroke-width:2"
     d="M669,122 l-113,0"
     id="path14810" />
  <path
     style="fill:none;stroke:#b2b2b2;stroke-width:2"
     d="M556,97 l113,0"
     id="path14812" />
  <path
     style="fill:none;stroke:#b2b2b2;stroke-width:2"
     d="M556,71 l113,0"
     id="path14814" />
  <path
     style="fill:none;stroke:#b2b2b2;stroke-width:2"
     d="M556,46 l113,0"
     id="path14816" />
  <path
     style="fill:#ccc"
     d="M65,216 l905,0 0,717 -905,0 0,-717z"
     id="path14818" />
  <path
     style="fill:#c7c7c7"
     d="M65,725 l905,-300 0,508 -905,0 0,-208z"
     id="path14820" />
  <path
     style="fill:#c2c2c2"
     d="M65,755 l905,-299 0,477 -905,0 0,-178z"
     id="path14822" />
  <path
     style="fill:#bdbdbd"
     d="M65,799 l905,-300 0,434 -905,0 0,-134z"
     id="path14824" />
  <path
     style="fill:none;stroke:#000;stroke-width:2"
     d="M65,216 l905,0 0,717 -905,0 0,-717"
     id="path14826" />
  <path
     style="fill:none;stroke:#7f7f7f;stroke-width:2"
     d="M65,914 l905,0"
     id="path14828" />
  <path
     style="fill:none;stroke:#7f7f7f;stroke-width:2"
     d="M669,216 l0,491"
     id="path14830" />
  <path
     style="fill:none;stroke:#7f7f7f;stroke-width:2"
     d="M367,216 l0,491"
     id="path14832" />
  <path
     style="fill:none;stroke:#7f7f7f;stroke-width:2"
     d="M65,707 l905,0"
     id="path14834" />
  <path
     style="fill:none;stroke:#7f7f7f;stroke-width:2"
     d="M65,725 l905,0"
     id="path14836" />
  <path
     style="fill:#b2b2b2;stroke:#000;stroke-width:2"
     d="M28,744 l37,0 0,132 -37,0 0,-132z"
     id="path14838" />
  <g
     id="HA_ANI"
     inkscape:label="HA_ANI">
    <path
       style="fill:#999;stroke:#000;stroke-width:2"
       d="M688,744 l264,0 0,151 -264,0 0,-151z"
       id="path14840" />
    <path
       style="fill:#999;stroke:#000;stroke-width:2"
       d="M386,744 l264,0 0,151 -264,0 0,-151z"
       id="path14842" />
    <path
       style="fill:#999;stroke:#000;stroke-width:2"
       d="M84,744 l264,0 0,151 -264,0 0,-151z"
       id="path14844" />
    <path
       style="fill:none;stroke:#000;stroke-width:2"
       d="M688,744 l150,151"
       id="path14846" />
    <path
       style="fill:none;stroke:#000;stroke-width:2"
       d="M688,820 l75,75"
       id="path14848" />
    <path
       style="fill:none;stroke:#000;stroke-width:2"
       d="M763,744 l151,151"
       id="path14850" />
    <path
       style="fill:none;stroke:#000;stroke-width:2"
       d="M838,744 l114,113"
       id="path14852" />
    <path
       style="fill:none;stroke:#000;stroke-width:2"
       d="M914,744 l38,38"
       id="path14854" />
    <path
       style="fill:none;stroke:#000;stroke-width:2"
       d="M707,744 l150,151"
       id="path14856" />
    <path
       style="fill:none;stroke:#000;stroke-width:2"
       d="M688,801 l94,94"
       id="path14858" />
    <path
       style="fill:none;stroke:#000;stroke-width:2"
       d="M688,876 l19,19"
       id="path14860" />
    <path
       style="fill:none;stroke:#000;stroke-width:2"
       d="M782,744 l151,151"
       id="path14862" />
    <path
       style="fill:none;stroke:#000;stroke-width:2"
       d="M857,744 l95,94"
       id="path14864" />
    <path
       style="fill:none;stroke:#000;stroke-width:2"
       d="M933,744 l19,19"
       id="path14866" />
    <path
       style="fill:none;stroke:#000;stroke-width:2"
       d="M725,744 l151,151"
       id="path14868" />
    <path
       style="fill:none;stroke:#000;stroke-width:2"
       d="M688,782 l113,113"
       id="path14870" />
    <path
       style="fill:none;stroke:#000;stroke-width:2"
       d="M688,857 l37,38"
       id="path14872" />
    <path
       style="fill:none;stroke:#000;stroke-width:2"
       d="M801,744 l151,151"
       id="path14874" />
    <path
       style="fill:none;stroke:#000;stroke-width:2"
       d="M876,744 l76,76"
       id="path14876" />
    <path
       style="fill:none;stroke:#000;stroke-width:2"
       d="M744,744 l151,151"
       id="path14878" />
    <path
       style="fill:none;stroke:#000;stroke-width:2"
       d="M688,763 l132,132"
       id="path14880" />
    <path
       style="fill:none;stroke:#000;stroke-width:2"
       d="M688,838 l56,57"
       id="path14882" />
    <path
       style="fill:none;stroke:#000;stroke-width:2"
       d="M820,744 l132,132"
       id="path14884" />
    <path
       style="fill:none;stroke:#000;stroke-width:2"
       d="M895,744 l57,57"
       id="path14886" />
    <path
       style="fill:none;stroke:#000;stroke-width:2"
       d="M952,744 l-151,151"
       id="path14888" />
    <path
       style="fill:none;stroke:#000;stroke-width:2"
       d="M952,820 l-76,75"
       id="path14890" />
    <path
       style="fill:none;stroke:#000;stroke-width:2"
       d="M876,744 l-151,151"
       id="path14892" />
    <path
       style="fill:none;stroke:#000;stroke-width:2"
       d="M801,744 l-113,113"
       id="path14894" />
    <path
       style="fill:none;stroke:#000;stroke-width:2"
       d="M725,744 l-37,38"
       id="path14896" />
    <path
       style="fill:none;stroke:#000;stroke-width:2"
       d="M933,744 l-151,151"
       id="path14898" />
    <path
       style="fill:none;stroke:#000;stroke-width:2"
       d="M952,801 l-95,94"
       id="path14900" />
    <path
       style="fill:none;stroke:#000;stroke-width:2"
       d="M952,876 l-19,19"
       id="path14902" />
    <path
       style="fill:none;stroke:#000;stroke-width:2"
       d="M857,744 l-150,151"
       id="path14904" />
    <path
       style="fill:none;stroke:#000;stroke-width:2"
       d="M782,744 l-94,94"
       id="path14906" />
    <path
       style="fill:none;stroke:#000;stroke-width:2"
       d="M707,744 l-19,19"
       id="path14908" />
    <path
       style="fill:none;stroke:#000;stroke-width:2"
       d="M914,744 l-151,151"
       id="path14910" />
    <path
       style="fill:none;stroke:#000;stroke-width:2"
       d="M952,782 l-114,113"
       id="path14912" />
    <path
       style="fill:none;stroke:#000;stroke-width:2"
       d="M952,857 l-38,38"
       id="path14914" />
    <path
       style="fill:none;stroke:#000;stroke-width:2"
       d="M838,744 l-150,151"
       id="path14916" />
    <path
       style="fill:none;stroke:#000;stroke-width:2"
       d="M763,744 l-75,76"
       id="path14918" />
    <path
       style="fill:none;stroke:#000;stroke-width:2"
       d="M895,744 l-151,151"
       id="path14920" />
    <path
       style="fill:none;stroke:#000;stroke-width:2"
       d="M952,763 l-132,132"
       id="path14922" />
    <path
       style="fill:none;stroke:#000;stroke-width:2"
       d="M952,838 l-57,57"
       id="path14924" />
    <path
       style="fill:none;stroke:#000;stroke-width:2"
       d="M820,744 l-132,132"
       id="path14926" />
    <path
       style="fill:none;stroke:#000;stroke-width:2"
       d="M744,744 l-56,57"
       id="path14928" />
    <path
       style="fill:none;stroke:#000;stroke-width:2"
       d="M386,744 l151,151"
       id="path14930" />
    <path
       style="fill:none;stroke:#000;stroke-width:2"
       d="M386,820 l75,75"
       id="path14932" />
    <path
       style="fill:none;stroke:#000;stroke-width:2"
       d="M461,744 l151,151"
       id="path14934" />
    <path
       style="fill:none;stroke:#000;stroke-width:2"
       d="M537,744 l113,113"
       id="path14936" />
    <path
       style="fill:none;stroke:#000;stroke-width:2"
       d="M612,744 l38,38"
       id="path14938" />
    <path
       style="fill:none;stroke:#000;stroke-width:2"
       d="M405,744 l151,151"
       id="path14940" />
    <path
       style="fill:none;stroke:#000;stroke-width:2"
       d="M386,801 l94,94"
       id="path14942" />
    <path
       style="fill:none;stroke:#000;stroke-width:2"
       d="M386,876 l19,19"
       id="path14944" />
    <path
       style="fill:none;stroke:#000;stroke-width:2"
       d="M480,744 l151,151"
       id="path14946" />
    <path
       style="fill:none;stroke:#000;stroke-width:2"
       d="M556,744 l94,94"
       id="path14948" />
    <path
       style="fill:none;stroke:#000;stroke-width:2"
       d="M631,744 l19,19"
       id="path14950" />
    <path
       style="fill:none;stroke:#000;stroke-width:2"
       d="M424,744 l150,151"
       id="path14952" />
    <path
       style="fill:none;stroke:#000;stroke-width:2"
       d="M386,782 l113,113"
       id="path14954" />
    <path
       style="fill:none;stroke:#000;stroke-width:2"
       d="M386,857 l38,38"
       id="path14956" />
    <path
       style="fill:none;stroke:#000;stroke-width:2"
       d="M499,744 l151,151"
       id="path14958" />
    <path
       style="fill:none;stroke:#000;stroke-width:2"
       d="M574,744 l76,76"
       id="path14960" />
    <path
       style="fill:none;stroke:#000;stroke-width:2"
       d="M442,744 l151,151"
       id="path14962" />
    <path
       style="fill:none;stroke:#000;stroke-width:2"
       d="M386,763 l132,132"
       id="path14964" />
    <path
       style="fill:none;stroke:#000;stroke-width:2"
       d="M386,838 l56,57"
       id="path14966" />
    <path
       style="fill:none;stroke:#000;stroke-width:2"
       d="M518,744 l132,132"
       id="path14968" />
    <path
       style="fill:none;stroke:#000;stroke-width:2"
       d="M593,744 l57,57"
       id="path14970" />
    <path
       style="fill:none;stroke:#000;stroke-width:2"
       d="M650,744 l-151,151"
       id="path14972" />
    <path
       style="fill:none;stroke:#000;stroke-width:2"
       d="M650,820 l-76,75"
       id="path14974" />
    <path
       style="fill:none;stroke:#000;stroke-width:2"
       d="M574,744 l-150,151"
       id="path14976" />
    <path
       style="fill:none;stroke:#000;stroke-width:2"
       d="M499,744 l-113,113"
       id="path14978" />
    <path
       style="fill:none;stroke:#000;stroke-width:2"
       d="M424,744 l-38,38"
       id="path14980" />
    <path
       style="fill:none;stroke:#000;stroke-width:2"
       d="M631,744 l-151,151"
       id="path14982" />
    <path
       style="fill:none;stroke:#000;stroke-width:2"
       d="M650,801 l-94,94"
       id="path14984" />
    <path
       style="fill:none;stroke:#000;stroke-width:2"
       d="M650,876 l-19,19"
       id="path14986" />
    <path
       style="fill:none;stroke:#000;stroke-width:2"
       d="M556,744 l-151,151"
       id="path14988" />
    <path
       style="fill:none;stroke:#000;stroke-width:2"
       d="M480,744 l-94,94"
       id="path14990" />
    <path
       style="fill:none;stroke:#000;stroke-width:2"
       d="M405,744 l-19,19"
       id="path14992" />
    <path
       style="fill:none;stroke:#000;stroke-width:2"
       d="M612,744 l-151,151"
       id="path14994" />
    <path
       style="fill:none;stroke:#000;stroke-width:2"
       d="M650,782 l-113,113"
       id="path14996" />
    <path
       style="fill:none;stroke:#000;stroke-width:2"
       d="M650,857 l-38,38"
       id="path14998" />
    <path
       style="fill:none;stroke:#000;stroke-width:2"
       d="M537,744 l-151,151"
       id="path15000" />
    <path
       style="fill:none;stroke:#000;stroke-width:2"
       d="M461,744 l-75,76"
       id="path15002" />
    <path
       style="fill:none;stroke:#000;stroke-width:2"
       d="M593,744 l-151,151"
       id="path15004" />
    <path
       style="fill:none;stroke:#000;stroke-width:2"
       d="M650,763 l-132,132"
       id="path15006" />
    <path
       style="fill:none;stroke:#000;stroke-width:2"
       d="M650,838 l-57,57"
       id="path15008" />
    <path
       style="fill:none;stroke:#000;stroke-width:2"
       d="M518,744 l-132,132"
       id="path15010" />
    <path
       style="fill:none;stroke:#000;stroke-width:2"
       d="M442,744 l-56,57"
       id="path15012" />
    <path
       style="fill:none;stroke:#000;stroke-width:2"
       d="M84,744 l151,151"
       id="path15014" />
    <path
       style="fill:none;stroke:#000;stroke-width:2"
       d="M84,820 l76,75"
       id="path15016" />
    <path
       style="fill:none;stroke:#000;stroke-width:2"
       d="M160,744 l151,151"
       id="path15018" />
    <path
       style="fill:none;stroke:#000;stroke-width:2"
       d="M235,744 l113,113"
       id="path15020" />
    <path
       style="fill:none;stroke:#000;stroke-width:2"
       d="M311,744 l37,38"
       id="path15022" />
    <path
       style="fill:none;stroke:#000;stroke-width:2"
       d="M103,744 l151,151"
       id="path15024" />
    <path
       style="fill:none;stroke:#000;stroke-width:2"
       d="M84,801 l94,94"
       id="path15026" />
    <path
       style="fill:none;stroke:#000;stroke-width:2"
       d="M84,876 l19,19"
       id="path15028" />
    <path
       style="fill:none;stroke:#000;stroke-width:2"
       d="M178,744 l151,151"
       id="path15030" />
    <path
       style="fill:none;stroke:#000;stroke-width:2"
       d="M254,744 l94,94"
       id="path15032" />
    <path
       style="fill:none;stroke:#000;stroke-width:2"
       d="M329,744 l19,19"
       id="path15034" />
    <path
       style="fill:none;stroke:#000;stroke-width:2"
       d="M122,744 l151,151"
       id="path15036" />
    <path
       style="fill:none;stroke:#000;stroke-width:2"
       d="M84,782 l113,113"
       id="path15038" />
    <path
       style="fill:none;stroke:#000;stroke-width:2"
       d="M84,857 l38,38"
       id="path15040" />
    <path
       style="fill:none;stroke:#000;stroke-width:2"
       d="M197,744 l151,151"
       id="path15042" />
    <path
       style="fill:none;stroke:#000;stroke-width:2"
       d="M273,744 l75,76"
       id="path15044" />
    <path
       style="fill:none;stroke:#000;stroke-width:2"
       d="M141,744 l150,151"
       id="path15046" />
    <path
       style="fill:none;stroke:#000;stroke-width:2"
       d="M84,763 l132,132"
       id="path15048" />
    <path
       style="fill:none;stroke:#000;stroke-width:2"
       d="M84,838 l57,57"
       id="path15050" />
    <path
       style="fill:none;stroke:#000;stroke-width:2"
       d="M216,744 l132,132"
       id="path15052" />
    <path
       style="fill:none;stroke:#000;stroke-width:2"
       d="M291,744 l57,57"
       id="path15054" />
    <path
       style="fill:none;stroke:#000;stroke-width:2"
       d="M348,744 l-151,151"
       id="path15056" />
    <path
       style="fill:none;stroke:#000;stroke-width:2"
       d="M348,820 l-75,75"
       id="path15058" />
    <path
       style="fill:none;stroke:#000;stroke-width:2"
       d="M273,744 l-151,151"
       id="path15060" />
    <path
       style="fill:none;stroke:#000;stroke-width:2"
       d="M197,744 l-113,113"
       id="path15062" />
    <path
       style="fill:none;stroke:#000;stroke-width:2"
       d="M122,744 l-38,38"
       id="path15064" />
    <path
       style="fill:none;stroke:#000;stroke-width:2"
       d="M329,744 l-151,151"
       id="path15066" />
    <path
       style="fill:none;stroke:#000;stroke-width:2"
       d="M348,801 l-94,94"
       id="path15068" />
    <path
       style="fill:none;stroke:#000;stroke-width:2"
       d="M348,876 l-19,19"
       id="path15070" />
    <path
       style="fill:none;stroke:#000;stroke-width:2"
       d="M254,744 l-151,151"
       id="path15072" />
    <path
       style="fill:none;stroke:#000;stroke-width:2"
       d="M178,744 l-94,94"
       id="path15074" />
    <path
       style="fill:none;stroke:#000;stroke-width:2"
       d="M103,744 l-19,19"
       id="path15076" />
    <path
       style="fill:none;stroke:#000;stroke-width:2"
       d="M311,744 l-151,151"
       id="path15078" />
    <path
       style="fill:none;stroke:#000;stroke-width:2"
       d="M348,782 l-113,113"
       id="path15080" />
    <path
       style="fill:none;stroke:#000;stroke-width:2"
       d="M348,857 l-37,38"
       id="path15082" />
    <path
       style="fill:none;stroke:#000;stroke-width:2"
       d="M235,744 l-151,151"
       id="path15084" />
    <path
       style="fill:none;stroke:#000;stroke-width:2"
       d="M160,744 l-76,76"
       id="path15086" />
    <path
       style="fill:none;stroke:#000;stroke-width:2"
       d="M291,744 l-150,151"
       id="path15088" />
    <path
       style="fill:none;stroke:#000;stroke-width:2"
       d="M348,763 l-132,132"
       id="path15090" />
    <path
       style="fill:none;stroke:#000;stroke-width:2"
       d="M348,838 l-57,57"
       id="path15092" />
    <path
       style="fill:none;stroke:#000;stroke-width:2"
       d="M216,744 l-132,132"
       id="path15094" />
    <path
       style="fill:none;stroke:#000;stroke-width:2"
       d="M141,744 l-57,57"
       id="path15096" />
  </g>
  <path
     style="fill:#b2b2b2;stroke:#000;stroke-width:2"
     d="M103,178 l830,0 0,38 -830,0 0,-38z"
     id="path15098" />
  <path
     style="fill:none;stroke:#000;stroke-width:2"
     d="M688,178 l0,-132 19,-18 113,0 0,113 -19,19 0,18 -113,0"
     id="path15100" />
  <path
     style="fill:none;stroke:#000;stroke-width:2"
     d="M537,178 l0,-132 19,-18 113,0 0,113 -19,19 0,18 -113,0"
     id="path15102" />
  <path
     style="fill:none;stroke:#000;stroke-width:2"
     d="M348,178 l0,-132 -19,-18 -113,0 0,113 19,19 0,18 113,0"
     id="path15104" />
  <path
     style="fill:none;stroke:#000;stroke-width:2"
     d="M499,178 l0,-132 -19,-18 -113,0 0,113 19,19 0,18 113,0"
     id="path15106" />
</svg>
